#title		"Enjoy Ver.2.0"
#composer	"rana"
#Copyright	"nsd.lib, Copyright (c) 2012 S.W. All rights reserved."

#offsetPCM	$C000
コード		"nsd.bin"
音楽数		1

E(0) = { 13 12 11 8 D1 7 D2 6 L 5 }
E(1) = {12 L 0 }
E(2) = { 12 12 12 12 12 L 0 }

E(3) = {      	06 08 10 11 11 11 10 10 10 10			;StringsA
		09 D8 09 D8 08 D8 08 D8 07 D8 07 D8 L	06 }
E(4)= {		03 05 07 08 D2 07 D4						;StringsB
		06 D8 06 D8 05 D8 05 D8 04 D8 04 D8 L	03}
E(5) = {       	10 07
		13 11 09 07 05 03 02
		04 07 05 04 03 02 02 01
		03 05 04 03 02 02 01 L 01 }
E(7) = {	12 10 9 7 L 5 }
E(8) = {	13 10 9 7 D4 L 1 }
E(9) = {	14 12 10 D4 8 D4 6 D4 5 D1 L 0 }
E(14) = { 02 03 04 05 D4 04 D4 03 D4 02 D4 L 01 }			;Strings C
E(15) = {02 03 04 05 D4 04 D4 03 D4 02 D4 L 01 00 }
E(30) = { (43,15,5) (15,0,50) L 0 R L 0 }
E(40) = { 10 9 8 7 L 0 }									;kirbyR
E(41) = { 12 11 10 9 L 1 }
E(42) = { 15 13 12 11 L 4 }
E(43) = { 14 L 0 }			;kirby part2
E(44) = { 15 L 4 }
E(45) = { 11 D1 9 8 D7 7 D2 L 0}
E(46) = { 15 14 13 12 L 4}
E(47) = { 8 D2 6 5 L 0 }		;kirby part3
E(48) = { 13 12 11 10 L 2}
E(49) = { 2 6 8 5 L 0 }		;kirby melo
E(50) = { 2 6 8 5 3 D8 4 D8 5 D8 6 D8 7 D8 8 D12 L 0}	;kirby longtone
E(51) = { 5 D2 3 2 L 0 }
E(52) = { 3 7 9 L 6 }									;kirby longton2
E(53) = { 7 5 D2 L 0 }
E(461)={	10 07  L 00 }
E(462)={	10 08 07 06 05 04 03 03 02 02 01 01 L 00 }
E(463)={	13 12 10 09 09 08 08 08
			07 07 07 07 06 D8 05 D8 04 D9 03 D10 02 D11 01 D12 L 00 }
E(561)={	 -2 -2 -2 -2 -1 -1 -1 -1 0 0 0 0 L -2 -2 -2 -1 -1 -1 0 0 L 0 }

E(464)= { 10 02 L 00}
E(465)= { 07 D5 06 D6 05 D6 04 D7 03 D9 02 D11 01 D10 L 00 }
E(466)={	11 06 09 05 07 04 05 03 04 02 03 01 02 00 01 L 00 }
E(467)={	08 06 05 04 03 02 D1 L 00 }
E(468)={			  5 2 L 0 }		;kirby drums
E(469)={		    6 3 1 L 0 }
E(470)={		    7 4 2 L 0 }
E(471)={		  8 5 3 1 L 0 }
E(472)={		  9 6 4 2 L 0 }
E(473)={	   10 7 5 3 1 L 0 }
E(474)={	   11 8 6 4 2 L 0 }
E(475)={	    10 9 7 5 3 1 0 D8 1 D8 L 0 }	;kirby drums2
E(476)={	   13 10 8 6 4 2 0 D8 2 D8 L 0 }
E(477)={	 14 11 9 7 5 3 1 0 D8 3 D8 L 0 }
E(478)={	 15 12 10 8 6 4 2 0 D8 4 D8 L 0}
E(479)={	15 12 10 8 6 L 4 }
E(480)={	7 L 0 }		;kirby part2
E(481)={	10 7 5 3 L 0}
E(490)={  15 14 13 11 10 9  8 8 7 7 6 6 5 5 4 4 3 3 3 2 2 2 2 L 1 D5} ;モザイクロール

E(700)={ 0 D10 2 D10 4 D10 5 D10 6 D10 4 D10 L 2 D10 3 D6 1 D6 }	;�g�̉���
E(800)={6,12,11,10,9,8,12,7,5,4,3,2,1, L 0} // コナミスネア+クローズハット
E(801) = {12,6, L 2} // クローズハット単体
E(802) = {12,8,7,5,5,5,12,8,5,5,4,4,4,3,3,3,2,2, L 2} // オープンハット+クローズハット
E(803) = {10,14,13,12,10,10,12,9,7,7,5,5,12,6,3,3,2,2,1,1, L 0} // シンバル+クローズハット
E(804) = {0 L -10 }

E(900) = { L 0 12}

DPCM {

		 c4, "an_kick.dmc",15,0
       	 d4, "snare_CH.dmc",15,0
				 e4, "rocktom.dmc",15,0
}







BGM(0){

//B2
TR1 o4 t130 l16 Ev* v3 fa-c>e-< v5 fa->ce-< v7 fa->ce-< v9 fa->ce-< 
		   v3 gb->df< v5 gb->df< v7 gb->df< v9 gb->df<
		   v3 e-gb->d< v5 e-gb->d< v7 e-gb->d< v9 e-gb->d<
		   v3 a>cea< v5 a>cea< v7 a>cea< v9 a>cea< 
TR2 o2 Ev3 l1 fge-a
TR3 q7 o6 c4.c8 l8cde-c l4 gfe-d f4.f8 l8  fe-fg fe-dc c4 r-4
TR4         Ev463En561e2 En* Ev461a16a16 Ev462g8 Ev466d8 Ev462g8
	[Ev461a16a16 Ev462g8 Ev466d8 Ev462g8]14
TR5 o4 l4 cr-cc[cccc]3

//B2'
TR1 o4     l16 Ev* v3 fa-c>e-< v5 fa->ce-< v7 fa->ce-< v9 fa->ce-< 
		   v3 gb->df< v5 gb->df< v7 gb->df< v9 gb->df<
		   v3 e-gb->d< v5 e-gb->d< v7 e-gb->d< v9 e-gb->d<
		   v3 a>cea< v5 a>cea< v7 a>cea< v9 a>cea< 
TR2 o2 Ev3 l1 fge-a2 l8 agfe-
TR3 o6 c4.c8 l8cde-c l4 gfe-d e-4.e-8 e-8d8c8d8e-1 
TR5 o4 l4 [cccc  ]4


TR1 o4 t130 l16 Ev* v3 fa-c>e-< v5 fa->ce-< v7 fa->ce-< v9 fa->ce-< 
		   v3 gb->df< v5 gb->df< v7 gb->df< v9 gb->df<
		   v3 e-gb->d< v5 e-gb->d< v7 e-gb->d< v9 e-gb->d<
		   v3 a>cea< v5 a>cea< v7 a>cea< v9 a>cea< 
TR2 o2 Ev3 l1 fge-a
TR3 q7 o6 c4.c8 l8cde-c l4 gfe-d f4.f8 l8  fe-fg fe-dc c4 r-4
TR4         Ev463En561e2 En* Ev461a16a16 Ev462g8 Ev466d8 Ev462g8
	[Ev461a16a16 Ev462g8 Ev466d8 Ev462g8]14
TR5 o4 l4 cr-cc[cccc]3

//B2'
TR1 o4     l16 Ev* v3 fa-c>e-< v5 fa->ce-< v7 fa->ce-< v9 fa->ce-< 
		   v3 gb->df< v5 gb->df< v7 gb->df< v9 gb->df<
		   v3 e-gb->d< v5 e-gb->d< v7 e-gb->d< v9 e-gb->d<
		   v3 a>cea< v5 a>cea< v7 a>cea< v9 a>cea< 
TR2 o2 Ev3 l1 fge-a2 l8 agfe-
TR3 o6 c4.c8 l8cde-c l4 gfe-d c1 r-1
TR4    l4 [r-4.r-8r-4 Ev466d4  ]3 r-4.r-8d8 d8d8d8
TR5 o4 l4 [cccc  ]3 c4.c8c8d8d8d8




//Intro

TR1 o4 @1 Ev* v9 
	Ev5 EC2,3 l16 v7 [ceg>c<]4 [<b>deb]4 [<a>cea]4 [<gb>dg]4
      l16 v7 [fa>cf<]4 [egb>e<]4 [dfa>d<]4 [gb>dg<]4

TR2 @2 o3 Ev3 @1  
	o4 l8  a4b>cde4 c <bagag2
	o4 fef4gfed edcde4r-4
	o4 degdegde fefgfedc
	o3 b>cdefgab>cdefgab>c


TR3 o4   l8 q7 cccc cccc <bbbb bbbb aaaa aaaa gggg gggg
                 ffff ffff  eeee eeee dddd dddd gggg gggg

TR4 [Ev461a16a16 Ev462g8]16

TR5 [r-1]4


//A'
TR1 l16 [ceg>c<]4 [<b>deb]4 [<a>cea]4 [<gb>dg]4
  l16 v7 [fa>cf<]4 [egb>e<]4 [dfa>d<]4 [gb>dg<]4

TR2 l4 o4 eceg fcf>c< bagag2 l8 agfe
   @2 o3 Ev3 @1 l8
	o4 degdegde fefgfedc
	o3 b>cdefgab>cdefgab>c


TR3 o4　　l8 q7 cccc cccc <bbbb bbbb aaaa aaaa gggg gggg
                ffff ffff  eeee eeee dddd dddd gggg gggg

TR4 
     Ev463En561e2 En* Ev461a16a16 Ev462g8 Ev466d8 Ev462g8
	[Ev461a16a16 Ev462g8 Ev466d8 Ev462g8]14

TR5 o4 [l4 cccc]12

//B
TR1 o4 l16 Ev* v3 fac>e< v5 fa>ce< v7 fa>ce< v9 fa>ce< 
		   v3 gb>df< v5 gb>df< v7 gb>df< v9 gb>df<
		   v3 egb>d< v5 egb>d< v7 egb>d< v9 egb>d<
		   v3 a>cea< v5 a>cea< v7 a>cea< v9 a>cea< 
TR2 o2 Ev3 l1 fgea
TR3 o6 c4.c8 l8cdec l4 gfed f4.f8 l8  fefg fedc c4 r-4
TR4    l4 Ev463En561e2 En561 r-4 Ev466 d4 [r-4.r-8r-4 Ev466d4  ]3
TR5 o4 l4 [c4.c8c4  d4  ]4

//B'
TR1 o4  v3 fac>e< v5 fa>ce< v7 fa>ce< v9 fa>ce< 
		   v3 gb>df< v5 gb>df< v7 gb>df< v9 gb>df<
		   v3 egb>d< v5 egb>d< v7 egb>d< v9 egb>d<
		   v3 a>cea< v5 a>cea< v7 a>cea< v9 a>cea< 
TR2 o2 Ev3 l1 fgea
TR3 o6 c4.c8 l8cdec l4 gfed e4.e8 l8 edcd e2 r-2
TR4    l4 [r-4.r-8r-4 Ev466d4  ]3 r-4.r-8r-8 d8d8d8
TR5 o4 l4 [c4.c8c4  d4  ]3 c4.c8c8d8d8d8


}