#title		"Unity Tracks"
#composer	"rana"
#copyright	"nsd.lib, Copyright (c) 2012 S.W. All rights reserved."

#OffsetPCM	$C000
#Code		"nsd_vrc6.bin"
#BGM		7

E(0) = { 13 12 11 8 D1 7 D2 6 L 5 }
E(1) = {12 L 0 }
E(2) = { 12 12 12 12 12 L 0 }

E(3) = {      	06 08 10 11 11 11 10 10 10 10			;StringsA
		09 D8 09 D8 08 D8 08 D8 07 D8 07 D8 L	06 }
E(4)= {		03 05 07 08 D2 07 D4						;StringsB
		06 D8 06 D8 05 D8 05 D8 04 D8 04 D8 L	03}
E(5) = {       	10 07 
		13 11 09 07 05 03 02
		04 07 05 04 03 02 02 01
		03 05 04 03 02 02 01 L 01 }
E(7) = {	12 10 9 7 L 5 }
E(8) = {	13 10 9 7 D4 L 1 }
E(9) = {	14 12 10 D4 8 D4 6 D4 5 D1 L 0 }
E(14) = { 02 03 04 05 D4 04 D4 03 D4 02 D4 L 01 }			;Strings C
E(40) = { 10 9 8 7 L 0 }									;kirbyR
E(41) = { 12 11 10 9 L 1 }
E(42) = { 15 13 12 11 L 4 }
E(461)={	10 07  L 00 }
E(462)={	10 08 07 06 05 04 03 03 02 02 01 01 L 00 }
E(463)={	11 10 10 09 09 08 08 08 
			07 07 07 07 06 D8 05 D8 04 D9 03 D10 02 D11 01 D12 L 00 }
E(561)={	 -2 -2 -2 -2 -1 -1 -1 -1 0 0 0 0 L -2 -2 -2 -1 -1 -1 0 0 L 0 }
E(464)={	10 02 L 00}
E(465)= {	07 D7 06 D7 05 D7 04 D8 03 D8 02 D9 01 D14 L 00 }
E(466)={	11 06 09 05 07 04 05 03 04 02 03 01 02 00 01 L 00 }
E(467)={	08 06 05 04 03 02 D1 L 00 }
E(468)={			  5 2 L 0 }		;kirby drums
E(469)={		    6 3 1 L 0 }
E(470)={		    7 4 2 L 0 }
E(471)={		  8 5 3 1 L 0 }
E(472)={		  9 6 4 2 L 0 }
E(473)={	   10 7 5 3 1 L 0 }
E(474)={	   11 8 6 4 2 L 0 }
E(475)={	    10 9 7 5 3 1 0 D8 1 D8 L 0 }	;kirby drums2
E(476)={	   13 10 8 6 4 2 0 D8 2 D8 L 0 }
E(477)={	 14 11 9 7 5 3 1 0 D8 3 D8 L 0 }
E(478)={	 15 12 10 8 6 4 2 0 D8 4 D8 L 0}
E(479)={	15 12 10 8 6 L 4 }
E(480)={	 12 L 0 }
E(481)={	 12 12 12 12 12 L  0 }
E(700)={ 0 D10 2 D10 4 D10 5 D10 6 D10 4 D10 L 2 D10 3 D6 1 D6 }	;�g�̉���

DPCM {

		 c4, "an_kick.dmc",15,0
       	 d4, "snare_CH.dmc",15,0
}







BGM(0){ 

//Dungeon
TR1 t100 L [r-1]4
TR2 L o2 @1 l8 Ev5 q7 [ee ef er- r-4 r-1 ]2
TR3 L o3 l8 q7 [ee ef er- r-4 r-1 ]2
TR4 L [Ev467 l8 aa Ev466 d Ev467 a]8

TR1 o4 l8 @2 Ev5 EC2,3 l8 [egb>d< egb>c< egb>d< dgb>d<]2
TR2 o2 @1 l8 Ev0 q7 [ee ef er- r-4 r-1 ]2
TR3 o3 l8 q7 [ee ef er- r-4 r-1 ]2
TR4 [Ev467 l8 aa Ev466 d Ev467 a]8




}


BGM(1){

//Sceane



TR1 t132 l24 Ev5 o3 	ea>c< fb>d< g>ce< g+>df<
TR2 l24 Ev5 o4 	ea>c< fb>d< g>ce< g+>df<
TR3 l24 o4 		ec<a> fc<a> g<ca> g+<df>
TR8 l24 Ev5 o4		ec<a> fc<a> g<ca> g+<df>
TR4 l24 [r-]12
TR5 l24 [r-]12


//A-A

TR1 L o5 Ev0 e2. d8e8 d2g2 c2. l12 <b>ce l2 d<g>
TR2 L o3 l16 Ev5 EC2,3 [2 o3 a>cega>ceg] [2 o3 g+b>dgg+b>dg] [2 o3 gb>dgb>dg<b] [2 o3 f+a>c+ef+a>c+e]
TR8 L o3 l16 Ev5 EC2,3 [2 o3 a>cega>ceg] [2 o3 g+b>dgg+b>dg] [2 o3 gb>dgb>dg<b] [2 o3 f+a>c+ef+a>c+e]
TR3 L q7 l8 o3 [a>a16a16<]4 [4 g+>g+16g+16<]  [4 g>g16g16<]  [4 f+>f+16f+16<]
TR4 L o4 l8 Ev463 En561 e8  En* Ev466 d8d8 Ev461 a8 En* [Ev461a8 Ev462g8 Ev466d8 Ev462g8]7
TR5 L [o4 l4 cccc]4

//A-B

TR1 l4 <a>e l8. dc<a8g1> l4 <a>e l8. deg8 e1
TR2 l16 Ev5 EC2,3 o3 [2 fa>cfafc<a] [2 egb>dgd<bg] [2 fa>cfafc<a]  g>dgb>d<bg<b g+>dg+b<d>bg+d
TR8 l16 Ev5 EC2,3 o3 [2 fa>cfafc<a] [2 egb>dgd<bg] [2 fa>cfafc<a]  g>dgb>d<bg<b g+>dg+b<d>bg+d
TR3 q7 l8 o3 [f >f16f16<]4 [e >e16e16<]4 [f>f16f16<]4 [g>g16g16<]2 [g+>g+16g+16]2
TR4 o4 l8 Ev463 En561 e8  En* Ev466 d8d8 Ev461 a8 En* [Ev461a8 Ev462g8 Ev466d8 Ev462g8]7
TR5 [o4 l4 cccc]3 l8 cccc l16 cccc l32 cccccccc


//A-C
TR1 o5 Ev0 e2. d8e8 d2g2 c2. l12 <b>ce l2 d<g>
TR2 o3 l16 Ev5 EC2,3 [2 o3 a>cega>ceg] [2 o3 g+b>dgg+b>dg] [2 o3 gb>dgb>dg<b] [2 o3 f+a>c+ef+a>c+e]
TR8 o3 l16 Ev5 EC2,3 [2 o3 a>cega>ceg] [2 o3 g+b>dgg+b>dg] [2 o3 gb>dgb>dg<b] [2 o3 f+a>c+ef+a>c+e]
TR3 q7 l8 o3 [a>a16a16<]4 [4 g+>g+16g+16<]  [4 g>g16g16<]  [4 f+>f+16f+16<]
TR4 o4 l8 Ev463 En561 e8  En* Ev466 d8d8 Ev461 a8 En* [Ev461a8 Ev462g8 Ev466d8 Ev462g8]7
TR5 [o4 l4 cccc]4

//A-D

TR1 l4 <a>e l8. dc<a8g1> l4 <a>e l8. deg8 e1
TR2 l16 Ev5 EC2,3 o3 [2 fa>cfafc<a] [2 egb>dgd<bg] [2 fa>cfafc<a] g>dgb>d<bg<b g+>dg+b<d>bg+d
TR8 l16 Ev5 EC2,3 o3 [2 fa>cfafc<a] [2 egb>dgd<bg] [2 fa>cfafc<a] g>dgb>d<bg<b g+>dg+b<d>bg+d
TR3 q7 l8 o3 [f >f16f16<]4 [e >e16e16<]4 [f>f16f16<]4 [g>g16g16<]2 [g+>g+16g+16]2
TR4 o4 l8 Ev463 En561 e8  En* Ev466 d8d8 Ev461 a8 En* [Ev461a8 Ev462g8 Ev466d8 Ev462g8]7
TR5 [o4 l4 cccc]3 l8 cccc l16 cccc l32 cccccccc


}



BGM(2){

//Event Sceane Winter

TR1 L t72 Ev5 o5 l8 EC2,3 [ o5 e<fa>e d<eg>d c<df>c <bceb]4
TR2 L [r-1]8 Ev14 [l16 a&b&a&b&a&b&a&b r-2]2 [r-1]2
TR3 L [r-1]4 o4 q255 [f4.f8 e4.e8 d4.d8 c4.c8]4
TR4 r-1

;Reffrence
;http://yamanemichiru.com/blog/2016/11/24/%E9%9B%AA%E6%99%AF%E8%89%B2%E3%82%92%E9%9F%B3%E3%81%A7%E3%81%82%E3%82%89%E3%82%8F%E3%81%99%E3%81%A8/



}

BGM(3){

//SHOP

TR1 L t126 [r-]12 L [r-1]4 v7 EC3,2 o6 l16 bafd<a rrr r-2
TR2 L q7 Ev4 	l8 ccr-c <bbr-b>ddr-d eer-e
TR3 L q7		l8 ffr-f  ggr-g eer-e aar-a
TR4 [r-1]4 
TR4 L o4 l8 Ev463 En561 e8  En* Ev466 d8d8 Ev461 a8 En* L  [Ev461a8 Ev462g8 Ev466d8 Ev462g8]7
TR5 [r-1]8 o4 l4 L [cccc]4

}


BGM(4){
//Dungeon2

;A
TR1		L Ev5 [o2 l8 ar>a r o2 b- r>a-r]8
TR3		L	[o4 l8 re>rc  o4 r- fr b-]8

TR2		L Ev5 [r-1]2 o6 c2 l16bagfe-dc<b>c1
TR2			[r-1]2 o6 c2 l16bagfe-dc<b>c1


;B


TR2		[l8 q255 o6 cq7c4q255c c+q7c+4q255c+ l8 q255 o6 cq7c4q255c <bq7b4q255b]2
TR1		[l8 q255 o3 aq7a4q255a a+q7a+4q255a+ l8 q255 o3 aq7a4q255a a-q7a-4q255a-]2
TR3		[l8 q255 o5 eq7e4q255e f+q7f+4q255f+  l8 q255 o5 eq7e4q255e e-q7e-4q255e-]2

}

BGM(5){

//Castle

;A
TR1		L [r-2.]8 
TR3		L	[o5 q7  l8 r- ee  r- e-e-  r- dd  r- c+c+]4
TR2		L Ev5 [o3 t86 l8 <a>aa <g+>g+g+ <g>gg <f+>f+f+]4


;B
TR1		Ev3 @1 o6 e4.d8 l8eg e2. dc<aga>c <a2.  [r-2.]4
TR3			[o5 q7  l8 r- ee  r- e-e-  r- dd  r- c+c+]4
TR2		Ev5 [o3 t86 l8 <a>aa <g+>g+g+ <g>gg <f+>f+f+]4


;B'
TR1		Ev3 @1 o6 e4.d8 l8eg e2. dc<aga>c <a2.  [r-2.]3 r-4. @2 c<ag>
TR3			[o5 q7  l8 r- ee  r- e-e-  r- dd  r- c+c+]4
TR2		Ev5 [o3 t86 l8 <a>aa <g+>g+g+ <g>gg <f+>f+f+]4



;C

TR1		Ev3 @2 l8 [dedegededec<a>dedege dedc<a>c]2
TR3			[o5 l8 [<c>cc]4 [<g>gg]4]2
TR2		Ev5 [o3 l8 [<f>ff]4 [<c>cc]4]2

;D		
TR1		Ev3 @2 l8 dedede dedede dedede dedede
TR3			o5 [<c>cc]2 [<c+>c+c+]2 [<d>dd]2 [<d+>d+d+]2
TR2		Ev5 o3 [<f>ff]2 [<f+>f+f+]2 [<g>gg]2 [<g+>g+g+]2

}

BGM(6){

//Sceane
TR1		r-1
TR2		L v7 l16 t108 o4	[cdcr- gr-r-r- c dcr- <g>r-r-r-  cdcr- gr-g r- c dcr- <g>r-r-r-]2
TR3		L l16 t108 o4	[cdcr- gr-r-r- c dcr- <g>r-r-r-  cdcr- gr-g r- c dcr- <g>r-r-r-]2
TR4		L Ev480	 o4 [l16 b r d12 d24Ev481 d r Ev480 d12 d24]8
}