#title		"Live 95 Chiptuned"
#composer	"Mega Ran"
#Copyright	"nsd.lib, Copyright (c) 2012 S.W. All rights reserved."

#offsetPCM	$C000
コード		"nsd_vrc6.bin"
音楽数		1

E(0) = { 13 12 11 8 D1 7 D2 6 L 5 }
E(1) = {12 L 0 }
E(2) = { 12 12 12 12 12 L 0 }

E(3) = {      	06 08 10 11 11 11 10 10 10 10			;StringsA
		09 D8 09 D8 08 D8 08 D8 07 D8 07 D8 L	06 }
E(4)= {		03 05 07 08 D2 07 D4						;StringsB
		06 D8 06 D8 05 D8 05 D8 04 D8 04 D8 L	03}
E(5) = {       	10 07
		13 11 09 07 05 03 02
		04 07 05 04 03 02 02 01
		03 05 04 03 02 02 01 L 01 }
E(7) = {	12 10 9 7 L 5 }
E(8) = {	13 10 9 7 D4 L 1 }
E(9) = {	14 12 10 D4 8 D4 6 D4 5 D1 L 0 }
E(14) = { 02 03 04 05 D4 04 D4 03 D4 02 D4 L 01 }			;Strings C
E(15) = {02 03 04 05 D4 04 D4 03 D4 02 D4 L 01 00 }
E(30) = { (43,15,5) (15,0,50) L 0 R L 0 }
E(40) = { 10 9 8 7 L 0 }									;kirbyR
E(41) = { 12 11 10 9 L 1 }
E(42) = { 15 13 12 11 L 4 }
E(43) = { 14 L 0 }			;kirby part2
E(44) = { 15 L 4 }
E(45) = { 11 D1 9 8 D7 7 D2 L 0}
E(46) = { 15 14 13 12 L 4}
E(47) = { 8 D2 6 5 L 0 }		;kirby part3
E(48) = { 13 12 11 10 L 2}
E(49) = { 2 6 8 5 L 0 }		;kirby melo
E(50) = { 2 6 8 5 3 D8 4 D8 5 D8 6 D8 7 D8 8 D12 L 0}	;kirby longtone
E(51) = { 5 D2 3 2 L 0 }
E(52) = { 3 7 9 L 6 }									;kirby longton2
E(53) = { 7 5 D2 L 0 }
E(54) = { 15 14 13 12 11 10 9 8 7 L 3 } 
E(55) = { 15 12 11 10 9 D11 8 D10 7 D10 6 D10 5 D10 4 D10 3 D9 2 D9 L 1 D9 }
E(56) = { 1 5 7 4 2 D3 L 3 D3}
E(461)={	10 07  L 00 }
E(462)={	10 08 07 06 05 04 03 03 02 02 01 01 L 00 }
E(463)={	13 12 10 09 09 08 08 08
			07 07 07 07 06 D8 05 D8 04 D9 03 D10 02 D11 01 D12 L 00 }
E(561)={	 -2 -2 -2 -2 -1 -1 -1 -1 0 0 0 0 L -2 -2 -2 -1 -1 -1 0 0 L 0 }

E(464)= { 10 02 L 00}
E(465)= { 07 D5 06 D6 05 D6 04 D7 03 D9 02 D11 01 D10 L 00 }
E(466)={	11 06 09 05 07 04 05 03 04 02 03 01 02 00 01 L 00 }
E(467)={	08 06 05 04 03 02 D1 L 00 }
E(468)={			  5 2 L 0 }		;kirby drums
E(469)={		    6 3 1 L 0 }
E(470)={		    7 4 2 L 0 }
E(471)={		  8 5 3 1 L 0 }
E(472)={		  9 6 4 2 L 0 }
E(473)={	   10 7 5 3 1 L 0 }
E(474)={	   11 8 6 4 2 L 0 }
E(475)={	    10 9 7 5 3 1 0 D8 1 D8 L 0 }	;kirby drums2
E(476)={	   13 10 8 6 4 2 0 D8 2 D8 L 0 }
E(477)={	 14 11 9 7 5 3 1 0 D8 3 D8 L 0 }
E(478)={	 15 12 10 8 6 4 2 0 D8 4 D8 L 0}
E(479)={	15 12 10 8 6 L 4 }
E(480)={	7 L 0 }		;kirby part2
E(481)={	10 7 5 3 L 0}
E(482)={    11 8 6 4 2 L 0} ;Hat
E(490)={  15 14 13 11 10 9  8 8 7 7 6 6 5 5 4 4 3 3 3 2 2 2 2 L 1 D5} ;モザイクロール

E(700)={ 0 D10 2 D10 4 D10 5 D10 6 D10 4 D10 L 2 D10 3 D6 1 D6 }	;�g�̉���
E(800)={6,12,11,10,9,8,12,7,5,4,3,2,1, L 0} // コナミスネア+クローズハット
E(801) = {12,6, L 2} // クローズハット単体
E(802) = {12,8,7,5,5,5,12,8,5,5,4,4,4,3,3,3,2,2, L 2} // オープンハット+クローズハット
E(803) = {10,14,13,12,10,10,12,9,7,7,5,5,12,6,3,3,2,2,1,1, L 0} // シンバル+クローズハット
E(804) = {0 L -10 }
E(01001) { (15,10,5) L 10 R (5,0,3) L 0 }


;Drum
E(805) = { 14 6 5 4 2 1 0 }					;closed hh (d)
E(806) = { 12 6 5 4 2 1 1 1 0}			;open hh (e)
E(807) = { 15 13 12 11 9 6 5 4 3 2 1 }				;BassDrum (c)
E(808) = { 15 14 13 11 10 9  8 8 7 7 6 6 5 5 4 4 3 3 3 2 2 2 2 1 1 1 1 1}				;snare (a)


E(900) = { L 0 12}
E(901) = { L 1 5 10}
E(902) = { L 1 6 9}
E(903) = { L 1 4 9}
E(905) = { 1 D5 2  D5 3 D7 5 D7 7 D9 9 D9 12 D7 13 D5 14 D3 }

DPCM {

		 c4, "an_kick.dmc",15,0
       	 d4, "snare_CH.dmc",15,0
				 e4, "rocktom.dmc",15,0
}



BGM(0)
{
;intro 1→繰り返し3回
TR8 Ev3 r-1 l16 EC2,3 o3 @1 fga-b-g8^2 r-1 r-2 r-1 r-1 r-1  d+ef4e-4  l32 fe-f16 r-8 r-4 r-2
 
TR1  @2  v7  [o4 Ev3 e+4. g8^2  g+4. g8^2 ]3  [l32 fe-f16 r-8 r-4 r-2]2
TR6  @2  v7  [o4 Ev3 c+4. d+8^2 f4.  d+8^2 ]3 [l32 fe-f16 r-8 r-4 r-2]2
TR2 t85 @2 v7 [o3 Ev3  g+4. a+8^2>c4. <a+8^2]3 [l32 fe-f16 r-8 r-4 r-2]2

TR3 o4 [c+4.d+8^2]4 o3[c+4.d+8^2]2 o3 l32 fe-f16 r-8 r-4 r-2 l32 fe-f16 r-8 r-4 En1001 l16 u%20 o4 cd<ce> cd<ce> En*


TR4 o4 [r-1]8
TR5 o4 [r-1]7 r-2 l16 eedceedc

;motif a with beats
TR1  @2  v7  o4 Ev3 e+4. g8^2  g+4. g8^2   [l32 fe-f16 r-8 r-4 r-2]2
TR6  @2  v7  o4 Ev3 c+4. d+8^2 f4.  d+8^2 [l32 fe-f16 r-8 r-4 r-2]2
TR2  @2  v7 o3 Ev3  g+4. a+8^2>c4. <a+8^2 [l32 fe-f16 r-8 r-4 r-2]2

TR3 o3 [q255c+4. d+8^2]2 [l32 fe-f16 r-8 r-4 r-2]2 

TR4  Ev463En561e2 En* [Ev461a16a16 Ev462g8 Ev466d8 Ev462g8]6
	 Ev461a16a16 Ev462g8 Ev466d8 Ev466 d16d16
TR5 [o4 c8.c16 d8c8 r-8c16c16 d8c8 ]3 c8.c16 d16d16c8 d8c8 d16d16c8

;motif a
TR1  @2  v7  o4 Ev3 e+4. g8^2  g+4. g8^2   [l32 fe-f16 r-8 r-4 r-2]2
TR6  @2  v7  o4 Ev3 c+4. d+8^2 f4.  d+8^2  [l32 fe-f16 r-8 r-4 r-2]2
TR2  @2 v7 o3 Ev3  g+4. a+8^2>c4. <a+8^2 [l32 fe-f16 r-8 r-4 r-2]2

TR3 o3 [c+4. d+8^2]2 [l32 fe-f16 r-8 r-4 r-2]2 

TR4  Ev463En561e2 En* [Ev461a16a16 Ev462g8 Ev466d8 Ev462g8]6
	 Ev461a16a16 Ev462g8 Ev466d8 Ev466 d16d16
TR5 [o4 c8.c16 d8c8 r-8c16c16 d8c8 ]3 c8.c16 d16d16c8 d8c8 d16d16c8

;motif b
TR1  @2  v7  o5 Ev3 c4. f8^2  g+4. a+8^2   [l32 fe-f16 r-8 r-4 r-2]2
TR6  @2  v7  o4 Ev3 a-4. g8^2 f4.  d+8^2  [l32 fe-f16 r-8 r-4 r-2]2
TR2  @2 v7 o4 Ev3  f4. e-8^2 c+4. c8^2 [l32 fe-f16 r-8 r-4 r-2]2

TR3 o3 q255f4.d+8^2 c+4.c8^2 [l32 fe-f16 r-8 r-4 r-2]2 

TR4  Ev463En561e2 En* [Ev461a16a16 Ev462g8 Ev466d8 Ev462g8]6
	 Ev461a16a16 Ev462g8 Ev466d8 Ev466 d16d16
TR5 [o4 c8.c16 d8c8 r-8c16c16 d8c8 ]3 c8.c16 d16d16c8 d8c8 d16d16c8

;motif c
TR1  @2 En* Ev3 l32 o3 [v1c+v5@0g+>v8@1c+v11@2f<]4 [v1d+v5@0a+>v8@1d+v11@2g<]4
                    [v1fv5>@0cv8@1fv11@2g+<]4 [v1e-v5@0b->v8@1e-v11@2g<]4
   [l32 fe-f16 r-8 r-4 r-2]2
TR6  @2  v7  o4 Ev3 c+4. d+8^2 f4.  d+8^2  [l32 fe-f16 r-8 r-4 r-2]2
TR2  @2 v7 o3 Ev3  g+4. a+8^2> c4.< g+8^2 [l32 fe-f16 r-8 r-4 r-2]2

TR3 o3 [q255c+4. d+8^2]2 [l32 fe-f16 r-8 r-4 r-2]2 

TR4  Ev463En561e2 En* [Ev461a16a16 Ev462g8 Ev466d8 Ev462g8]6
	 Ev461a16a16 Ev462g8 Ev466d8 Ev466 d16d16
TR5 [o4 c8.c16 d8c8 r-8c16c16 d8c8 ]3 c8.c16 d16d16c8 d8c8 d16d16c8


;motif b
TR1  @2  v7  o5 Ev3 c4. f8^2  g+4. a+8^2   [l32 fe-f16 r-8 r-4 r-2]2
TR6  @2  v7  o4 Ev3 a-4. g8^2 f4.  d+8^2  [l32 fe-f16 r-8 r-4 r-2]2
TR2  @2 v7 o4 Ev3  f4. e-8^2 c+4. c8^2 [l32 fe-f16 r-8 r-4 r-2]2

TR3 o3 q255f4.d+8^2 c+4.c8^2 [l32 fe-f16 r-8 r-4 r-2]2 

TR4  Ev463En561e2 En* [Ev461a16a16 Ev462g8 Ev466d8 Ev462g8]6
	 Ev461a16a16 Ev462g8 Ev466d8 Ev466 d16d16
TR5 [o4 c8.c16 d8c8 r-8c16c16 d8c8 ]3 c8.c16 d16d16c8 d8c8 d16d16c8

;motif c
TR1  @2 En* Ev3 l32 o3 [v1c+v5@0g+>v8@1c+v11@2f<]4 [v1d+v5@0a+>v8@1d+v11@2g<]4
                    [v1fv5>@0cv8@1fv11@2g+<]4 [v1e-v5@0b->v8@1e-v11@2g<]4
   [l32 fe-f16 r-8 r-4 r-2]2
TR6  @2  v7  o4 Ev3 c+4. d+8^2 f4.  d+8^2  [l32 fe-f16 r-8 r-4 r-2]2
TR2  @2 v7 o3 Ev3  g+4. a+8^2> c4.< g+8^2 [l32 fe-f16 r-8 r-4 r-2]2

TR3 o3 [q255c+4. d+8^2]2 [l32 fe-f16 r-8 r-4 r-2]2 

TR4  Ev463En561e2 En* [Ev461a16a16 Ev462g8 Ev466d8 Ev462g8]6
	 Ev461a16a16 Ev462g8 Ev466d8 Ev466 d16d16
TR5 [o4 c8.c16 d8c8 r-8c16c16 d8c8 ]3 c8.c16 d16d16c8 d8c8 d16d16c8


;break with no beats1

TR1  @2  v7  o4 Ev3 e+4. g8^2  g+4. g8^2   [l32 fe-f16 r-8 r-4 r-2]2
TR6  @2  v7  o4 Ev3 c+4. d+8^2 f4.  d+8^2  [l32 fe-f16 r-8 r-4 r-2]2
TR2 t85 @2 v7 o3 Ev3  g+4. a+8^2>c4. <a+8^2 [l32 fe-f16 r-8 r-4 r-2]2

TR3 o4 o3[c+4.d+8^2]2 [o3 l32 fe-f16 r-8 r-4 r-2]2

TR4  Ev463En561e2 En* r-2 [r-1]3
TR5 c1 [r-1]3

;break with no beats2
TR1  @2  v7  o4 Ev3 e+4. g8^2  g+4. g8^2  [l32 fe-f16 r-8 r-4 r-2]2
TR6  @2  v7  o4 Ev3 c+4. d+8^2 f4.  d+8^2  [l32 fe-f16 r-8 r-4 r-2]2
TR2 t85 @2 v7 o3 Ev3  g+4. a+8^2>c4. <a+8^2 [l32 fe-f16 r-8 r-4 r-2]2

TR3 o4  o3[c+4.d+8^2]2 o3 l32 fe-f16 r-8 r-4 r-2 l32 fe-f16 r-8 r-4 En1001 l16 u%20 o4 cd<ce> cd<ce> En*


TR4 o4 [r-1]4
TR5 o4 [r-1]3 r-2 l16 eedceedc

;motif b
TR1  @2  v7  o5 Ev3 c4. f8^2  g+4. a+8^2   [l32 fe-f16 r-8 r-4 r-2]2
TR6  @2  v7  o4 Ev3 a-4. g8^2 f4.  d+8^2  [l32 fe-f16 r-8 r-4 r-2]2
TR2  @2 v7 o4 Ev3  f4. e-8^2 c+4. c8^2 [l32 fe-f16 r-8 r-4 r-2]2

TR3 o3 q255f4.d+8^2 c+4.c8^2 [l32 fe-f16 r-8 r-4 r-2]2 

TR4  Ev463En561e2 En* [Ev461a16a16 Ev462g8 Ev466d8 Ev462g8]6
	 Ev461a16a16 Ev462g8 Ev466d8 Ev466 d16d16
TR5 [o4 c8.c16 d8c8 r-8c16c16 d8c8 ]3 c8.c16 d16d16c8 d8c8 d16d16c8

;motif c
TR1  @2 En* Ev3 l32 o3 [v1c+v5@0g+>v8@1c+v11@2f<]4 [v1d+v5@0a+>v8@1d+v11@2g<]4
                    [v1fv5>@0cv8@1fv11@2g+<]4 [v1e-v5@0b->v8@1e-v11@2g<]4
   [l32 fe-f16 r-8 r-4 r-2]2
TR6  @2  v7  o4 Ev3 c+4. d+8^2 f4.  d+8^2  [l32 fe-f16 r-8 r-4 r-2]2
TR2  @2 v7 o3 Ev3  g+4. a+8^2> c4.< g+8^2 [l32 fe-f16 r-8 r-4 r-2]2

TR3 o3 [q255c+4. d+8^2]2 [l32 fe-f16 r-8 r-4 r-2]2 

TR4  Ev463En561e2 En* [Ev461a16a16 Ev462g8 Ev466d8 Ev462g8]6
	 Ev461a16a16 Ev462g8 Ev466d8 Ev466 d16d16
TR5 [o4 c8.c16 d8c8 r-8c16c16 d8c8 ]3 c8.c16 d16d16c8 d8c8 d16d16c8

;motif b
TR1  @2  v7  o5 Ev3 c4. f8^2  g+4. a+8^2   [l32 fe-f16 r-8 r-4 r-2]2
TR6  @2  v7  o4 Ev3 a-4. g8^2 f4.  d+8^2  [l32 fe-f16 r-8 r-4 r-2]2
TR2  @2 v7 o4 Ev3  f4. e-8^2 c+4. c8^2 [l32 fe-f16 r-8 r-4 r-2]2

TR3 o3 q255f4.d+8^2 c+4.c8^2 [l32 fe-f16 r-8 r-4 r-2]2 

TR4  Ev463En561e2 En* [Ev461a16a16 Ev462g8 Ev466d8 Ev462g8]6
	 Ev461a16a16 Ev462g8 Ev466d8 Ev466 d16d16
TR5 [o4 c8.c16 d8c8 r-8c16c16 d8c8 ]3 c8.c16 d16d16c8 d8c8 d16d16c8

;motif c
TR1  @2 En* Ev3 l32 o3 [v1c+v5@0g+>v8@1c+v11@2f<]4 [v1d+v5@0a+>v8@1d+v11@2g<]4
                    [v1fv5>@0cv8@1fv11@2g+<]4 [v1e-v5@0b->v8@1e-v11@2g<]4
   [l32 fe-f16 r-8 r-4 r-2]2
TR6  @2  v7  o4 Ev3 c+4. d+8^2 f4.  d+8^2  [l32 fe-f16 r-8 r-4 r-2]2
TR2  @2 v7 o3 Ev3  g+4. a+8^2> c4.< g+8^2 [l32 fe-f16 r-8 r-4 r-2]2

TR3 o3 [q255c+4. d+8^2]2 [l32 fe-f16 r-8 r-4 r-2]2 

TR4  Ev463En561e2 En* [Ev461a16a16 Ev462g8 Ev466d8 Ev462g8]6
	 Ev461a16a16 Ev462g8 Ev466d8 Ev466 d16d16
TR5 [o4 c8.c16 d8c8 r-8c16c16 d8c8 ]3 c8.c16 d16d16c8 d8c8 d16d16c8


;last break with no beats1
;motif b
TR1  @2  v7  o5 Ev3 c4. f8^2  g+4. a+8^2   [l32 fe-f16 r-8 r-4 r-2]2
TR6  @2  v7  o4 Ev3 a-4. g8^2 f4.  d+8^2  [l32 fe-f16 r-8 r-4 r-2]2
TR2  @2 v7 o4 Ev3  f4. e-8^2 c+4. c8^2 [l32 fe-f16 r-8 r-4 r-2]2

TR3 o3 q255f4.d+8^2 c+4.c8^2 [l32 fe-f16 r-8 r-4 r-2]2 

TR4  Ev463En561e2 En* r-2 [r-1]7
TR5 c1 [r-1]7

;last break with no beats2

;motif c
TR1  @2 En* Ev3 l32 o3 [v1c+v5@0g+>v8@1c+v11@2f<]4 [v1d+v5@0a+>v8@1d+v11@2g<]4
                    [v1fv5>@0cv8@1fv11@2g+<]4 [v1e-v5@0b->v8@1e-v11@2g<]4
   [l32 fe-f16 r-8 r-4 r-2]2
TR6  @2  v7  o4 Ev3 c+4. d+8^2 f4.  d+8^2  [l32 fe-f16 r-8 r-4 r-2]2
TR2  @2 v7 o3 Ev3  g+4. a+8^2> c4.< g+8^2 [l32 fe-f16 r-8 r-4 r-2]2

TR3 o3 [q255c+4. d+8^2]2 [l32 fe-f16 r-8 r-4 r-2]2 

TR4  [r-1]8
TR5  [r-1]8


}


