#title		"Boss Battle"
#composer	"m_i"
#Copyright	"nsd.lib, Copyright (c) 2012 S.W. All rights reserved."

#offsetPCM	$C000
コード		"nsd_vrc6.bin"
音楽数		1

E(0) = { 13 12 11 8 D1 7 D2 6 L 5 }
E(1) = {12 L 0 }
E(2) = { 12 12 12 12 12 L 0 }

E(3) = {      	06 08 10 11 11 11 10 10 10 10			;StringsA
		09 D8 09 D8 08 D8 08 D8 07 D8 07 D8 L	06 }
E(4)= {		03 05 07 08 D2 07 D4						;StringsB
		06 D8 06 D8 05 D8 05 D8 04 D8 04 D8 L	03}
E(5) = {       	10 07
		13 11 09 07 05 03 02
		04 07 05 04 03 02 02 01
		03 05 04 03 02 02 01 L 01 }
E(7) = {	12 10 9 7 L 5 }
E(8) = {	13 10 9 7 D4 L 1 }
E(9) = {	14 12 10 D4 8 D4 6 D4 5 D1 L 0 }
E(14) = { 02 03 04 05 D4 04 D4 03 D4 02 D4 L 01 }			;Strings C
E(15) = {02 03 04 05 D4 04 D4 03 D4 02 D4 L 01 00 }
E(30) = { (43,15,5) (15,0,50) L 0 R L 0 }
E(40) = { 10 9 8 7 L 0 }									;kirbyR
E(41) = { 12 11 10 9 L 1 }
E(42) = { 15 13 12 11 L 4 }
E(43) = { 14 L 0 }			;kirby part2
E(44) = { 15 L 4 }
E(45) = { 11 D1 9 8 D7 7 D2 L 0}
E(46) = { 15 14 13 12 L 4}
E(47) = { 8 D2 6 5 L 0 }		;kirby part3
E(48) = { 13 12 11 10 L 2}
E(49) = { 2 6 8 5 L 0 }		;kirby melo
E(50) = { 2 6 8 5 3 D8 4 D8 5 D8 6 D8 7 D8 8 D12 L 0}	;kirby longtone
E(51) = { 5 D2 3 2 L 0 }
E(52) = { 3 7 9 L 6 }									;kirby longton2
E(53) = { 7 5 D2 L 0 }
E(461)={	10 07  L 00 }
E(462)={	10 08 07 06 05 04 03 03 02 02 01 01 L 00 }
E(463)={	13 12 10 09 09 08 08 08
			07 07 07 07 06 D8 05 D8 04 D9 03 D10 02 D11 01 D12 L 00 }
E(561)={	 -2 -2 -2 -2 -1 -1 -1 -1 0 0 0 0 L -2 -2 -2 -1 -1 -1 0 0 L 0 }

E(464)= { 10 02 L 00}
E(465)= { 07 D5 06 D6 05 D6 04 D7 03 D9 02 D11 01 D10 L 00 }
E(466)={	11 06 09 05 07 04 05 03 04 02 03 01 02 00 01 L 00 }
E(467)={	08 06 05 04 03 02 D1 L 00 }
E(468)={			  5 2 L 0 }		;kirby drums
E(469)={		    6 3 1 L 0 }
E(470)={		    7 4 2 L 0 }
E(471)={		  8 5 3 1 L 0 }
E(472)={		  9 6 4 2 L 0 }
E(473)={	   10 7 5 3 1 L 0 }
E(474)={	   11 8 6 4 2 L 0 }
E(475)={	    10 9 7 5 3 1 0 D8 1 D8 L 0 }	;kirby drums2
E(476)={	   13 10 8 6 4 2 0 D8 2 D8 L 0 }
E(477)={	 14 11 9 7 5 3 1 0 D8 3 D8 L 0 }
E(478)={	 15 12 10 8 6 4 2 0 D8 4 D8 L 0}
E(479)={	15 12 10 8 6 L 4 }
E(480)={	7 L 0 }		;kirby part2
E(481)={	10 7 5 3 L 0}
E(490)={  15 14 13 11 10 9  8 8 7 7 6 6 5 5 4 4 3 3 3 2 2 2 2 L 1 D5} ;モザイクロール

E(700)={ 0 D10 2 D10 4 D10 5 D10 6 D10 4 D10 L 2 D10 3 D6 1 D6 }	;�g�̉���
E(800)={6,12,11,10,9,8,12,7,5,4,3,2,1, L 0} // コナミスネア+クローズハット
E(801) = {12,6, L 2} // クローズハット単体
E(802) = {12,8,7,5,5,5,12,8,5,5,4,4,4,3,3,3,2,2, L 2} // オープンハット+クローズハット
E(803) = {10,14,13,12,10,10,12,9,7,7,5,5,12,6,3,3,2,2,1,1, L 0} // シンバル+クローズハット
E(804) = {10,-10, L 0}

E(900) = { L 0 12}

DPCM {

		 c4, "an_kick.dmc",15,0
       	 d4, "snare_CH.dmc",15,0
				 e4, "rocktom.dmc",15,0
}







BGM(0){
//A

TR1 t150 l8 Ev3 o4 g+2 l8 r- f+g+ag+4 >r-8e4.d+4 < g+1 r-1
TR2 D-2  l8 Ev3 o4 g+2 l8 r- f+g+ag+4 >r-8e4.d+4 < g+1 r-1


TR3 o3 q7
TR8 o2 v6 q7

TR3,8 l8 [c+g+f+g+]8

TR4	o4  Ev463En561e4 En*      Ev466d8 Ev461a16a16
                     [Ev461 a8     Ev461a16a16 Ev466d8 Ev461a16a16]7
TR5 o4  l4 [cdcd]4

TR6 o3  Ev4 g+1^4. >e4.d+4< g+1 r-1


TR7 Ev5 EC2,3 o6 v6 [l8 c+g+f+g+  l8  c+8c+16c+16g+16f+16g+16f+16]4


//a'

TR1     l8 Ev3 o4 g+2 l8 r- f+g+ag+4 >r-8e4.d+4 < g+1 r-1
TR2     l8 Ev3 o4 g+2 l8 r- f+g+ag+4 >r-8e4.d+4 < g+1 r-1


TR3 o3 q7
TR8 o2 v6 q7

TR3,8 l8 [c+g+f+g+]8

TR4	o4  Ev463En561e8 En* Ev461a16a16 Ev466d8 Ev461a16a16
                     [Ev461 a8     Ev461a16a16 Ev466d8 Ev461a16a16]7
TR5 o4  l4 [cdcd]4

TR6 Ev4 g+1^4. >e4.d+4< g+1 r-1


TR7 o6 v6 [l8 c+g+f+g+  l8  c+8c+16c+16g+16f+16g+16f+16]4

//B
TR1  l8 Ev3 o4 a2 l8 r- g+ab >c+<br-ar-g+r-d+
			f+4.e2^8 r-1

TR2  l8 Ev3 o4 a2 l8 r- g+ab >c+<br-ar-g+r-d+
			f+4.e2^8 r-1

TR3 o3 q7
TR8 o2 v6 q7

TR3,8 l8 l8 <a>c+e <a4> e ae
			<b>d+f+<b4> f+bf+
			c+<g+>c+g+4 ec+<b>
			c+eg+>  c+4< g+c+<b>
 
TR4	o4  Ev463En561e8 En* Ev461a16a16 Ev466d8 Ev461a16a16
                     [Ev461 a8     Ev461a16a16 Ev466d8 Ev461a16a16]7
TR5 o4  l4 [cdcd]4

TR6 o4 Ev4 c+4.e4.c+4 d+4.f+4.d+2^8 c+1^8 l8 r-8 o5 f+ed+

TR7 l8 c+aea  r-8 aea
       d+bf+b r-8 bf+b

	   [c+g+f+g+ r-8 g+f+g+]2
//B'
TR1  l8 Ev3 o4 a2 l8 r- g+ab >c+<br-a>r- d+r-e
			f+1 l16 r-8 g+d+ l8 c+<bag+d+<b

TR2  l8 Ev3 o4 a2 l8 r- g+ab >c+<br-a>r- d+r-e
			f+1 l16 r-8 g+d+ l8 c+<bag+d+<b
			  


TR3 o3 q7
TR8 o2 v6 q7

TR3,8 l8 l8 <a>c+e <a4> e ae
			<b>d+f+<b4> f+bd+
			<g+>d+<g+>g+4 d+<g+>d+
			g+>d+<g+>g+4<d+<g+<b
 
TR4	o4  Ev463En561e8 En* Ev461a16a16 Ev466d8 Ev461a16a16
                     [Ev461 a8     Ev461a16a16 Ev466d8 Ev461a16a16]7
TR5 o4  l4 [cdcd]3 r-8 e16d16c4 r-8 e8d8c8

TR6 o4 c+4.e4.c+4 d+4.f+4.d+4f+1 r-8 l16 >f+d+ l8c+b<ag+d+<b
TR7    c+aea  r-8 aea
       d+bf+b r-8 bf+b

	   [c+g+f+g+ r-8 g+f+g+]2

///Loop Point

//A

TR1 t150 l8 Ev3 o4 g+2 l8 r- f+g+ag+4 >r-8e4.d+4 < g+1 r-1
TR2 D-2  l8 Ev3 o4 g+2 l8 r- f+g+ag+4 >r-8e4.d+4 < g+1 r-1


TR3 o3 q7
TR8 o2 v6 q7

TR3,8 l8 [c+g+f+g+]8

TR4	o4  Ev463En561e4 En*      Ev466d8 Ev461a16a16
                     [Ev461 a8     Ev461a16a16 Ev466d8 Ev461a16a16]7
TR5 o4  l4 [cdcd]4

TR6 o3 Ev4 g+1^4. >e4.d+4< g+1 r-1


TR7 Ev5 EC2,3 o6 v6 [l8 c+g+f+g+  l8  c+8c+16c+16g+16f+16g+16f+16]4


//a'

TR1     l8 Ev3 o4 g+2 l8 r- f+g+ag+4 >r-8e4.d+4 < g+1 r-1
TR2     l8 Ev3 o4 g+2 l8 r- f+g+ag+4 >r-8e4.d+4 < g+1 r-1


TR3 o3 q7
TR8 o2 v6 q7

TR3,8 l8 [c+g+f+g+]8

TR4	o4  Ev463En561e8 En* Ev461a16a16 Ev466d8 Ev461a16a16
                     [Ev461 a8     Ev461a16a16 Ev466d8 Ev461a16a16]7
TR5 o4  l4 [cdcd]4

TR6 Ev4 g+1^4. >e4.d+4< g+1 r-1


TR7 o6 v6 [l8 c+g+f+g+  l8  c+8c+16c+16g+16f+16g+16f+16]4

//B
TR1  l8 Ev3 o4 a2 l8 r- g+ab >c+<br-ar-g+r-d+
			f+4.e2^8 r-1

TR2  l8 Ev3 o4 a2 l8 r- g+ab >c+<br-ar-g+r-d+
			f+4.e2^8 r-1

TR3 o3 q7
TR8 o2 v6 q7

TR3,8 l8 l8 <a>c+e <a4> e ae
			<b>d+f+<b4> f+bf+
			c+<g+>c+g+4 ec+<b>
			c+eg+>  c+4< g+c+<b>
 
TR4	o4  Ev463En561e8 En* Ev461a16a16 Ev466d8 Ev461a16a16
                     [Ev461 a8     Ev461a16a16 Ev466d8 Ev461a16a16]7
TR5 o4  l4 [cdcd]4

TR6 o4 Ev4 c+4.e4.c+4 d+4.f+4.d+2^8 c+1^8 l8 r-8 o5 f+ed+

TR7 l8 c+aea  r-8 aea
       d+bf+b r-8 bf+b

	   [c+g+f+g+ r-8 g+f+g+]2
//B'
TR1  l8 Ev3 o4 a2 l8 r- g+ab >c+<br-a>r- d+r-e
			f+1 l16 r-8 g+d+ l8 c+<bag+d+<b

TR2  l8 Ev3 o4 a2 l8 r- g+ab >c+<br-a>r- d+r-e
			f+1 l16 r-8 g+d+ l8 c+<bag+d+<b
			  


TR3 o3 q7
TR8 o2 v6 q7

TR3,8 l8 l8 <a>c+e <a4> e ae
			<b>d+f+<b4> f+bd+
			<g+>d+<g+>g+4 d+<g+>d+
			g+>d+<g+>g+4<d+<g+<b
 
TR4	o4  Ev463En561e8 En* Ev461a16a16 Ev466d8 Ev461a16a16
                     [Ev461 a8     Ev461a16a16 Ev466d8 Ev461a16a16]7
TR5 o4  l4 [cdcd]3 r-8 e16d16c4 r-8 e8d8c8

TR6 o4 c+4.e4.c+4 d+4.f+4.d+4f+1 r-8 l16 >f+d+ l8c+b<ag+d+<b
TR7    c+aea  r-8 aea
       d+bf+b r-8 bf+b

	   [c+g+f+g+ r-8 g+f+g+]2



//C
TR1 o4 r-8 l16 f+a>c+f+r-c+>c+<r-ar- c+<ar-e
	r-8 l16 f+b>d+f+r-d+  b r-f+r- d+<br-f+

	e2 r4 r-8 l16 g+ >e ec+r-c+ r-r- ec+r-c+ec+r-c+<b>c+
	r-8 f+a>c+f+< r-8 f+a>c+f+< r-8c+f+
	r-8 g+>d+g+d+< r-8 g+>d+g+d+< r-8 g+d+ <g+r-8. 

	d+2c4 r-1

	r-8 g+d+ l8 c+<bag+d+<b


TR2 o4 r-8 l16 f+a>c+f+r-c+>c+<r-ar- c+<ar-e
	r-8 l16 f+b>d+f+r-d+  b r-f+r- d+<br-f+

	e2 r4 r-8 l16 g+ >e ec+r-c+ r-r- ec+r-c+ec+r-c+<b>c+
	r-8 f+a>c+f+< r-8 f+a>c+f+< r-8c+f+
	r-8 g+>d+g+d+< r-8 g+>d+g+d+< r-8 g+d+ <g+r-8. 

	d+2c4 r-1

	r-8 g+d+ l8 c+<bag+d+<b

TR3 o4 q7
TR8 o3 v6 q7

TR3,8 l8 [a>a<]4 [b>b<]4 [e>e<]3 e->e-< [d->d-<]3 <<b>a
		 [f+>f+<]4 [g+>g+<]4

		 <g+8 r-8 >>e-4 g+8>c4 e-8 g+1

		 r-8 l8 d+<g+>g+4d+<g+<b

TR4	o4  [Ev461 a8     Ev461a16a16 Ev466d8 Ev461a16a16]16
TR5 o4  l4 [cdcd]8  r-8 e16d16c4 r-8 e8d8c8


TR6 o4 c+1^4 l4 d+ef+ e2 <b2> c+2. <b4> 
	<a2^8 l8g+>c+g+ l4 g+f+ e l8 d+ef+r-8
	b2a4g+1 r-8 l16 g+d+ l8 c+<bag+d+<b
	
TR7 o6 l16 v4 r- c+ae  r-r-r-eae    r-r- aeae
           r- d+bf+ r-r-r-f+bf+  r-r-bf+bf+
		   r- <g+>e<b>r-r-r- <b>e<b> r-r- e<b>e<b>
		   r- <g+>e<a>r-r-r- <a>e<a> r-r- e<b>e<b>

		   r- c+ae  r-r-r-eae    r-r- aeae
           r- d+bf+ r-r-r-f+bf+  r-r-bf+bf+

		   g+d+cg+d+cg+d+c+d+c+d+d+g+d+c
		   g+d+cg+d+cg+d+c+d+c+d+d+g+d+c

		   r-4 r-g+r-d+r-g+d+g+ r-g+d+g+


}
