#title		"Hanamaru Yell(classic ver)"
#composer	"tsuzuri58"
#Copyright	"nsd.lib, Copyright (c) 2012 S.W. All rights reserved."

#offsetPCM	$C000
コード		"nsd_vrc6.bin"
音楽数		1

E(0) = { 13 12 11 8 D1 7 D2 6 L 5 }
E(1) = {12 L 0 }
E(2) = { 12 12 12 12 12 L 0 }

E(3) = {      	06 08 10 11 11 11 10 10 10 10			;StringsA
		09 D8 09 D8 08 D8 08 D8 07 D8 07 D8 L	06 }
E(4)= {		03 05 07 08 D2 07 D4						;StringsB
		06 D8 06 D8 05 D8 05 D8 04 D8 04 D8 L	03}
E(5) = {       	10 07
		13 11 09 07 05 03 02
		04 07 05 04 03 02 02 01
		03 05 04 03 02 02 01 L 01 }
E(7) = {	12 10 9 7 L 5 }
E(8) = {	13 10 9 7 D4 L 1 }
E(9) = {	14 12 10 D4 8 D4 6 D4 5 D1 L 0 }
E(14) = { 02 03 04 05 D4 04 D4 03 D4 02 D4 L 01 }			;Strings C
E(15) = {02 03 04 05 D4 04 D4 03 D4 02 D4 L 01 00 }
E(30) = { (43,15,5) (15,0,50) L 0 R L 0 }
E(40) = { 10 9 8 7 L 0 }									;kirbyR
E(41) = { 12 11 10 9 L 1 }
E(42) = { 15 13 12 11 L 4 }
E(43) = { 14 L 0 }			;kirby part2
E(44) = { 15 L 4 }
E(45) = { 11 D1 9 8 D7 7 D2 L 0}
E(46) = { 15 14 13 12 L 4}
E(47) = { 8 D2 6 5 L 0 }		;kirby part3
E(48) = { 13 12 11 10 L 2}
E(49) = { 2 6 8 5 L 0 }		;kirby melo
E(50) = { 2 6 8 5 3 D8 4 D8 5 D8 6 D8 7 D8 8 D12 L 0}	;kirby longtone
E(51) = { 5 D2 3 2 L 0 }
E(52) = { 3 7 9 L 6 }									;kirby longton2
E(53) = { 7 5 D2 L 0 }
E(461)={	10 07  L 00 }
E(462)={	10 08 07 06 05 04 03 03 02 02 01 01 L 00 }
E(463)={	13 12 10 09 09 08 08 08
			07 07 07 07 06 D8 05 D8 04 D9 03 D10 02 D11 01 D12 L 00 }
E(561)={	 -2 -2 -2 -2 -1 -1 -1 -1 0 0 0 0 L -2 -2 -2 -1 -1 -1 0 0 L 0 }

E(464)= { 10 02 L 00}
E(465)= { 07 D5 06 D6 05 D6 04 D7 03 D9 02 D11 01 D10 L 00 }
E(466)={	11 06 09 05 07 04 05 03 04 02 03 01 02 00 01 L 00 }
E(467)={	08 06 05 04 03 02 D1 L 00 }
E(468)={			  5 2 L 0 }		;kirby drums
E(469)={		    6 3 1 L 0 }
E(470)={		    7 4 2 L 0 }
E(471)={		  8 5 3 1 L 0 }
E(472)={		  9 6 4 2 L 0 }
E(473)={	   10 7 5 3 1 L 0 }
E(474)={	   11 8 6 4 2 L 0 }
E(475)={	    10 9 7 5 3 1 0 D8 1 D8 L 0 }	;kirby drums2
E(476)={	   13 10 8 6 4 2 0 D8 2 D8 L 0 }
E(477)={	 14 11 9 7 5 3 1 0 D8 3 D8 L 0 }
E(478)={	 15 12 10 8 6 4 2 0 D8 4 D8 L 0}
E(479)={	15 12 10 8 6 L 4 }
E(480)={	7 L 0 }		;kirby part2
E(481)={	10 7 5 3 L 0}
E(490)={  15 14 13 11 10 9  8 8 7 7 6 6 5 5 4 4 3 3 3 2 2 2 2 L 1 D5} ;モザイクロール

E(700)={ 0 D10 2 D10 4 D10 5 D10 6 D10 4 D10 L 2 D10 3 D6 1 D6 }	;�g�̉���
E(800)={6,12,11,10,9,8,12,7,5,4,3,2,1, L 0} // コナミスネア+クローズハット
E(801) = {12,6, L 2} // クローズハット単体
E(802) = {12,8,7,5,5,5,12,8,5,5,4,4,4,3,3,3,2,2, L 2} // オープンハット+クローズハット
E(803) = {10,14,13,12,10,10,12,9,7,7,5,5,12,6,3,3,2,2,1,1, L 0} // シンバル+クローズハット
E(804) = {0 L -10 }


;Drum
E(805) = { 14 6 5 4 2 1 0 }					;closed hh (d)
E(806) = { 12 6 5 4 2 1 1 1 0}			;open hh (e)
E(807) = { 15 13 12 11 9 6 5 4 3 2 1 }				;BassDrum (c)
E(808) = { 15 14 13 11 10 9  8 8 7 7 6 6 5 5 4 4 3 3 3 2 2 2 2 1 1 1 1 1}				;snare (a)


E(900) = { L 0 12}

DPCM {

		 c4, "an_kick.dmc",15,0
       	 d4, "snare_CH.dmc",15,0
				 e4, "rocktom.dmc",15,0
}





BGM(0){

//intro  f# dur
TR1  o4 t180 @1 Ev3 l8 r-4 q5 f+4 e+8f+8g+8 a+4 a+4 g+8f+4g+4
                       r-4    f+4 e+8f+8g+8 a+2 f+8f+2 
TR2  o4 Ev5 EC2,3 l8 v7 b>d+f+a+ c+e+g+>c+< < a+>c+e+g+ d+f+a+>d+< <
                        b>d+f+a+ c+e+g+>c+< f+a+>c+f+a+f+c+<a+
TR3  o3 l4 q5 bb>c+c+<a+a+>d+d+ < bb>c+c+< f+f+f+f+
TR4  o4 Ev463En561e2 En* l8  Ev808 d Ev807 c Ev808 d Ev807 c  
        [Ev808 d4 Ev808 d4 Ev808 d Ev807 c Ev808 d Ev807 c ]3


//introB

TR1  o4 @1 Ev3 l8 r-4 q5 f+4 e+8f+8g+8 a+4 a+4 g+8f+4g+4
                       r-4    f+4 g+8f+8e+8 f+4. r-4 r-2
TR2  o4 Ev5 EC2,3 l8 v7 b>d+f+a+ c+e+g+>c+< dfa>d<  d+f+a+>d+< <
                        b>d+f+a+ c+e+g+>c+< f+a+>c+f+a+f+c+<a+
TR3  o3 l4 q5 bb>c+c+ dd d+d+ < bb>c+c+< f+8f+8f+8f+8 f+4 r-4
TR4  o4 Ev463En561e2 En* l8  Ev808 d Ev807 c Ev808 d Ev807 c  
        [Ev808 d4 Ev808 d4 Ev808 d Ev807 c Ev808 d Ev807 c ]3


//A1
TR1 o4 r-4 @2 Ev3 l4 a+a+b>c+<a+>c+f+e+4.e+8e+4 f+8c+2 r-4 c+8<b8a+8
TR2 o4 l4 f+a+>c+f+a+f+a+>c+
    o4 l4 d+f+a+>d+<f+d+f+a+
TR3  o4 l4 q5 f+4.f+8f+4 f+4 f4.f8f4f4 d+4.d+8 d+4d+4 c+4.c+8c+4c+4
TR4 Ev805 l4 [dddd]3 ddd Ev807 c


//A2
TR1 o4 b4a+8b4>f+4c+8^4. r4 c+8<b8a+8 b4a+8b4> f+4f+8 f+4. e+8e+2
TR2 o4 b>d+f+d+ f+c+f+a+
	o4 b>d+f+d+ g+e+g+>c+<
TR3 o3 b4.b8b4b4 a+4.a+8a+4a+4 b4.b8b4b4 >c+4.c+8c+4c+4
TR4 o4 Ev463En561e2 En* l8  Ev808 d Ev807 c Ev808 d Ev807 c  
        [Ev808 d4 Ev808 d4 Ev808 d Ev807 c Ev808 d Ev807 c ]3


//A3 
TR1 o4 r-4 @2 Ev3 l4 a+a+b>c+<a+>c+f+e+4.e+8e+4 g+8f+2 r-4 e+8f+8g+8
TR2 o4 l4 b> d+f+d+ >c+<g+>c+ d+
	o4 l4 f+d+f+a+ g+e+c+<g+
TR3  o3 l4 q5 b4.b8b4b4 a+4.a+8a+4a+4  > d+4.d+8d+4d+4 c+4.c+8c+4c+4
TR4 Ev805 l4 [dddd]3 ddd Ev807 c


//A4
TR1 o5 a+4g+8f+4e+4c+8^4. r4 e+8f+8g+8 a+4g+8f+4 g+4. f+4. e+8e+4 r-4
TR2 o4 b>d+f+d+ f+c+f+a+
	o4 b>d+f+d+ g+e+g+>c+<
TR3 o3 b4.b8b4b4 a+4.a+8a+4a+4 b4.b8b4b4 >c+4.c+8c+4c+4
TR4 o4 Ev463En561e2 En* l8  Ev808 d Ev807 c Ev808 d Ev807 c  
        [Ev808 d4 Ev808 d4 Ev808 d Ev807 c Ev808 d Ev807 c ]3


//B1
TR1 o5 l4 r- d+e+d+ e+8d+8e+8f+4. r-8 c+8 c+4d+8c+4<b4a+8^2. r-4
TR2  o4 Ev5 EC2,3 l8 v7 b>d+f+a+ c+e+g+>c+< < a+>c+e+g+ d+f+a+>d+< <
                        b>d+f+a+ c+e+g+>c+< f+a+>c+f+a+f+c+<a+
TR3 o3 l4 bb >c+c+< a+a+ >d+d+<   bb > c+c+< f+f+f+f+
TR4 o4 Ev463En561e2 En* l8  Ev808 d Ev807 c Ev808 d Ev807 c  
        [Ev808 d4 Ev808 d4 Ev808 d Ev807 c Ev808 d Ev807 c ]3

//B2 
TR1 o5 l4 r- d+e+d+ l8 dd+ff+ r-4 r-8 <b8 b4.>f+8f+4. f+8f+4f+4g+4f+4f+2. e+8e+4 r-4 c+8c+4f4
TR2 o4 Ev5 EC2,3 l8 v7 b>d+f+a+ c+e+g+>c+< dfa>d< d+f+a+>d+< 
	o4				[o4 b>d+f+b>d+<bf+d+]2 [o4 c+e+g+>c+g+e+c+<g+]2
TR3 o3 l4 bb > c+c+ dd d+d+ < bbbb bbbb c+c+c+c+ c+c+c+c+
TR4 o4 Ev463En561e2 En* l8  Ev808 d Ev807 c Ev808 d Ev807 c  
        [Ev808 d4 Ev808 d4 Ev808 d Ev807 c Ev808 d Ev807 c ]5

//C1

TR1 o5 Ev3 @2 f+4f+8f+4 f+8 r-8 e+4e+4f+4 g+4f+8 a+4.f+8f+2 r-2
	   r-4 c+4 <b4 a+8b4 > f+4 c+8^2
	   r-8 c+8<b8a+8 b4a+8b4> f+4 f+8f+4. e+e+2 
TR2 o5 Ev3 @2 EC* c+4c+8c+4 c+8 r-8 <b4b4b4> c+4d+8 f+4.c+8c+2 a+4.f+8f+2
       Ev5 EC2,3 l8 o4 b>d+f+b>d+f+b>d+
				 o4 a+>c+e+a+>c+e+a+>c+
				 o4 g+>c+e+g+>c+e+g+b
				 o5 c+e+g+>c+e+g+>c+e+
TR3 o3 l8 [f+>f+<]4 [e+>e+<]4 [d+>d+<]4 [c+>c+<]4 
	o2    [b>b<]4 [a+>a+<]4 [g+>g+<]4 > [c+>c+<]4
TR4 o4 Ev463En561e2 En* l8  Ev808 d Ev807 c Ev808 d Ev807 c  
        [Ev808 d4 Ev808 d4 Ev808 d Ev807 c Ev808 d Ev807 c ]7

//C2
TR1 o5 Ev3 f+4f+8f+4 f+8 r-8 e+4e+4f+4 g+4f+8 a+4.f+8f+2 r-2
	   r-4 c+4 <b4 a+8b4 > f+4 f8^4.
	       f4f+8g+8f8 g+2 r4 a+8f+4 r-2
TR2 o5 Ev3 @2 EC* c+4c+8c+4 c+8 r-8 <b4b4b4> c+4d+8 f+4.c+8c+2 a+4.f+8f+2
		Ev5 EC2,3 o4 b>d+f+b>d+f+b>d+
				  o5 c+e+g+>c+e+g+>c+e+
				  [o4 f+a+c+>f+a+>c+f+a+]2

TR3 o3 l8 [f+>f+<]4 [e+>e+<]4 [d+>d+<]4 [c+>c+<]4 
	o2    [b>b<]4 > [c+>c+<]4 [f+>f+<]8
TR4 o4 Ev463En561e2 En* l8  Ev808 d Ev807 c Ev808 d Ev807 c  
        [Ev808 d4 Ev808 d4 Ev808 d Ev807 c Ev808 d Ev807 c ]7

//C3

TR1 l4  r-8 cag+f+e f+2g+2f+1
TR2 o4  l8 df+af+bf+af+ eg+bg+>c+<g+bg+ [f+a+>c+<a+>d+<a+>c+<a+ ]2
TR3 [d>d<]4 [e>e<]4 [f+>f+<]8

TR4 o4 Ev463En561e2 En* l8  Ev808 d Ev807 c Ev808 d Ev807 c  
        [Ev808 d4 Ev808 d4 Ev808 d Ev807 c Ev808 d Ev807 c ]3

}



