#title		"Normal Battle"
#composer	"m_i"
#Copyright	"nsd.lib, Copyright (c) 2012 S.W. All rights reserved."

#offsetPCM	$C000
コード		"nsd_vrc6.bin"
音楽数		1

E(0) = { 13 12 11 8 D1 7 D2 6 L 5 }
E(1) = {12 L 0 }
E(2) = { 12 12 12 12 12 L 0 }

E(3) = {      	06 08 10 11 11 11 10 10 10 10			;StringsA
		09 D8 09 D8 08 D8 08 D8 07 D8 07 D8 L	06 }
E(4)= {		03 05 07 08 D2 07 D4						;StringsB
		06 D8 06 D8 05 D8 05 D8 04 D8 04 D8 L	03}
E(5) = {       	10 07
		13 11 09 07 05 03 02
		04 07 05 04 03 02 02 01
		03 05 04 03 02 02 01 L 01 }
E(7) = {	12 10 9 7 L 5 }
E(8) = {	13 10 9 7 D4 L 1 }
E(9) = {	14 12 10 D4 8 D4 6 D4 5 D1 L 0 }
E(14) = { 02 03 04 05 D4 04 D4 03 D4 02 D4 L 01 }			;Strings C
E(15) = {02 03 04 05 D4 04 D4 03 D4 02 D4 L 01 00 }
E(30) = { (43,15,5) (15,0,50) L 0 R L 0 }
E(40) = { 10 9 8 7 L 0 }									;kirbyR
E(41) = { 12 11 10 9 L 1 }
E(42) = { 15 13 12 11 L 4 }
E(43) = { 14 L 0 }			;kirby part2
E(44) = { 15 L 4 }
E(45) = { 11 D1 9 8 D7 7 D2 L 0}
E(46) = { 15 14 13 12 L 4}
E(47) = { 8 D2 6 5 L 0 }		;kirby part3
E(48) = { 13 12 11 10 L 2}
E(49) = { 2 6 8 5 L 0 }		;kirby melo
E(50) = { 2 6 8 5 3 D8 4 D8 5 D8 6 D8 7 D8 8 D12 L 0}	;kirby longtone
E(51) = { 5 D2 3 2 L 0 }
E(52) = { 3 7 9 L 6 }									;kirby longton2
E(53) = { 7 5 D2 L 0 }
E(461)={	10 07  L 00 }
E(462)={	10 08 07 06 05 04 03 03 02 02 01 01 L 00 }
E(463)={	13 12 10 09 09 08 08 08
			07 07 07 07 06 D8 05 D8 04 D9 03 D10 02 D11 01 D12 L 00 }
E(561)={	 -2 -2 -2 -2 -1 -1 -1 -1 0 0 0 0 L -2 -2 -2 -1 -1 -1 0 0 L 0 }

E(464)= { 10 02 L 00}
E(465)= { 07 D5 06 D6 05 D6 04 D7 03 D9 02 D11 01 D10 L 00 }
E(466)={	11 06 09 05 07 04 05 03 04 02 03 01 02 00 01 L 00 }
E(467)={	08 06 05 04 03 02 D1 L 00 }
E(468)={			  5 2 L 0 }		;kirby drums
E(469)={		    6 3 1 L 0 }
E(470)={		    7 4 2 L 0 }
E(471)={		  8 5 3 1 L 0 }
E(472)={		  9 6 4 2 L 0 }
E(473)={	   10 7 5 3 1 L 0 }
E(474)={	   11 8 6 4 2 L 0 }
E(475)={	    10 9 7 5 3 1 0 D8 1 D8 L 0 }	;kirby drums2
E(476)={	   13 10 8 6 4 2 0 D8 2 D8 L 0 }
E(477)={	 14 11 9 7 5 3 1 0 D8 3 D8 L 0 }
E(478)={	 15 12 10 8 6 4 2 0 D8 4 D8 L 0}
E(479)={	15 12 10 8 6 L 4 }
E(480)={	7 L 0 }		;kirby part2
E(481)={	10 7 5 3 L 0}
E(490)={  15 14 13 11 10 9  8 8 7 7 6 6 5 5 4 4 3 3 3 2 2 2 2 L 1 D5} ;モザイクロール

E(700)={ 0 D10 2 D10 4 D10 5 D10 6 D10 4 D10 L 2 D10 3 D6 1 D6 }	;�g�̉���
E(800)={6,12,11,10,9,8,12,7,5,4,3,2,1, L 0} // コナミスネア+クローズハット
E(801) = {12,6, L 2} // クローズハット単体
E(802) = {12,8,7,5,5,5,12,8,5,5,4,4,4,3,3,3,2,2, L 2} // オープンハット+クローズハット
E(803) = {10,14,13,12,10,10,12,9,7,7,5,5,12,6,3,3,2,2,1,1, L 0} // シンバル+クローズハット
E(804) = {10,-10, L 0}

E(900) = { L 0 12}

DPCM {

		 c4, "an_kick.dmc",15,0
       	 d4, "snare_CH.dmc",15,0
				 e4, "rocktom.dmc",15,0
}







BGM(0){
//Intro

TR1 r-1 t160 l8 Ev3 @1 o4 l1 [r-4]2 l8 r- bab
TR2 r-1 o2 Ev490 [r-4]4
TR3 r-1 o3 q7 [r-4]2 l8 r-e<bg+>
TR8 r-1 v6 q8 o3  [r-4]2  l8 r-e<bg+>
TR4	r-1 o4   En* Ev490 l4 ddd r-4
TR5 r-1 o4  l4 ddd8 e8d8c8
TR6 r-1 r-1
TR7  r-1  r-1

//A
TR1  o4 @1 Ev3 l8 a4>e1 r-2 dcd<bg1 r-2 ab
                  a4>e1 r-2 dcd8..<b32 g1  r-4.
TR2  o3 En* EC2,3 Ev5 v15 l8 [a>edeaede<]2 b>gdgbgdg< r-8>g16g16 dgbgdg<
                      [a>edeaede<]2 [b>gdgbgdg<]2 
TR8 v5 
TR3,8  En* o3 l8 [aaaa]3 aa>c<a [gggg]3 ggbg
             [aaaa]3 aa>c<a [gggg]3 ggbf4
TR4   Ev463En561e2 En* [Ev461a16a16 Ev462g8 Ev466d8 Ev462g8]7
     Ev463En561e2 En* [Ev461a16a16 Ev462g8 Ev466d8 Ev462g8]6
	 Ev461a16a16 Ev462g8 Ev466d8 
TR5   o4 l4 [cdc8c8d]7 cdc8c8d8
TR6  En* EC2,3 Ev5 v15 @1 l8 ar- br- >cr- <ba r-4 br- >cr- <br-
                        ar-br->cr-<ba r-4 a>d<bged
					  l8 ar- br- >cr- <ba r-4 br- >cr- <br-
                        ar-br->cr-<ba r-4 a>d<bged
TR7  En* o4 v12 D-1 @1 Ev4 [a1^1 b1 g1]2


//B 

TR1 @1 l8 ab>c4 c<bab>c r- d4. l4 c<b>c <b4.. >c32<b32 a1 r-8
       l8 ab>c4 c<bab>c r- d4d c<bb>cd e1 r2 r4 r8 g+16a16 b8^4. r8 g+2 e2. r-8 l16 <ab
TR2 En900 o4 @2 v9 l8 r- a>c<a>c<a>c<b r- b>d<b>d<b>d<a r->  cec r- cec r- ce r- a4< r-4
				   l8 r- a>c<a>c<a>c<b r- b>d<b>d<b>d<g+ r-g+>e<g+
				   [r-g+>e<g+]2 r-4 o3 r- b>eg+b>gd<bg+e r-ebe>e r-8
TR3,8 l8 f>c<affa g4 g>d<bgbg a 
		 aa>e<a aa>e<a4 a>e<a aa g f4 
		 f>c<affa g4 g>d<bgbg 
		g+4 [g+>e<g+bg+e g+4]3 g+>e<g+bg+ >e<g+

TR4 Ev463En561e2 En* Ev461a8 Ev462g8 Ev466d8 Ev462g8
    Ev463En561e2 En* Ev466d8 [Ev461a16a16 Ev462g8 Ev466d8 Ev462g8]4
	Ev461a16a16 Ev462g8 Ev466d8

    Ev463En561e2 En* Ev461a8 Ev462g8 Ev466d8 Ev462g8
    Ev463En561e2 En* Ev461a8 Ev462g8 Ev466d8 Ev461a16a16
    Ev463En561e2 En* Ev466d8 [Ev461a16a16 Ev462g8 Ev466d8 Ev462g8]7

TR5 c4c8d8r-8c8d8 r-8 c4c8d4c4d4
    c8c8d4 r-8 c8d8c8 cd4 c8c8d8

	c4c8d8r-8c8d8 r-8 c4c8d4c4d4
    c8c8d4 r-8 c8d8c8 cd4 c8c8d4 
	c8c8d4 r-8 c8d8c8 cd4 e8e8d8c8 

TR6  EC2,3 Ev4 r- En900 
	l8 r-a>c<r- >a<cr-r- r->b<dr- >b<dr-
	   r-4 l4 <e>ce r-1

	l8 r-a>c<r- >a<cr-r- r->b<dr- >b<dr-r-
	   r-4 l4 <e>ce r-1

	   r-4 <e>ce r-1


TR7 [r-8 a8>c2 r-4 r-8 <b8>d2 r-4 r-4 l4 <e>ce r-1]2
     r-4 <e>ce

}