#title		"HOME"
#composer	"m_i"
#Copyright	"nsd.lib, Copyright (c) 2012 S.W. All rights reserved."

#offsetPCM	$C000
コード		"nsd_vrc7.bin"
音楽数		1

E(0) = { 13 12 11 8 D1 7 D2 6 L 5 }
E(1) = {12 L 0 }
E(2) = { 12 12 12 12 12 L 0 }

E(3) = {      	06 08 10 11 11 11 10 10 10 10			;StringsA
		09 D8 09 D8 08 D8 08 D8 07 D8 07 D8 L	06 }
E(4)= {		03 05 07 08 D2 07 D4						;StringsB
		06 D8 06 D8 05 D8 05 D8 04 D8 04 D8 L	03}
E(5) = {       	10 07
		13 11 09 07 05 03 02
		04 07 05 04 03 02 02 01
		03 05 04 03 02 02 01 L 01 }
E(7) = {	12 10 9 7 L 5 }
E(8) = {	13 10 9 7 D4 L 1 }
E(9) = {	14 12 10 D4 8 D4 6 D4 5 D1 L 0 }
E(14) = { 02 03 04 05 D4 04 D4 03 D4 02 D4 L 01 }			;Strings C
E(15) = {02 03 04 05 D4 04 D4 03 D4 02 D4 L 01 00 }
E(30) = { (43,15,5) (15,0,50) L 0 R L 0 }
E(40) = { 10 9 8 7 L 0 }									;kirbyR
E(41) = { 12 11 10 9 L 1 }
E(42) = { 15 13 12 11 L 4 }
E(43) = { 14 L 0 }			;kirby part2
E(44) = { 15 L 4 }
E(45) = { 11 D1 9 8 D7 7 D2 L 0}
E(46) = { 15 14 13 12 L 4}
E(47) = { 8 D2 6 5 L 0 }		;kirby part3
E(48) = { 13 12 11 10 L 2}
E(49) = { 2 6 8 5 L 0 }		;kirby melo
E(50) = { 2 6 8 5 3 D8 4 D8 5 D8 6 D8 7 D8 8 D12 L 0}	;kirby longtone
E(51) = { 5 D2 3 2 L 0 }
E(52) = { 3 7 9 L 6 }									;kirby longton2
E(53) = { 7 5 D2 L 0 }
E(461)={	10 07  L 00 }
E(462)={	10 08 07 06 05 04 03 03 02 02 01 01 L 00 }
E(463)={	13 12 10 09 09 08 08 08
			07 07 07 07 06 D8 05 D8 04 D9 03 D10 02 D11 01 D12 L 00 }
E(561)={	 -2 -2 -2 -2 -1 -1 -1 -1 0 0 0 0 L -2 -2 -2 -1 -1 -1 0 0 L 0 }

E(464)= { 10 02 L 00}
E(465)= { 07 D5 06 D6 05 D6 04 D7 03 D9 02 D11 01 D10 L 00 }
E(466)={	11 06 09 05 07 04 05 03 04 02 03 01 02 00 01 L 00 }
E(467)={	08 06 05 04 03 02 D1 L 00 }
E(468)={			  5 2 L 0 }		;kirby drums
E(469)={		    6 3 1 L 0 }
E(470)={		    7 4 2 L 0 }
E(471)={		  8 5 3 1 L 0 }
E(472)={		  9 6 4 2 L 0 }
E(473)={	   10 7 5 3 1 L 0 }
E(474)={	   11 8 6 4 2 L 0 }
E(475)={	    10 9 7 5 3 1 0 D8 1 D8 L 0 }	;kirby drums2
E(476)={	   13 10 8 6 4 2 0 D8 2 D8 L 0 }
E(477)={	 14 11 9 7 5 3 1 0 D8 3 D8 L 0 }
E(478)={	 15 12 10 8 6 4 2 0 D8 4 D8 L 0}
E(479)={	15 12 10 8 6 L 4 }
E(480)={	7 L 0 }		;kirby part2
E(481)={	10 7 5 3 L 0}
E(490)={  15 14 13 11 10 9  8 8 7 7 6 6 5 5 4 4 3 3 3 2 2 2 2 L 1 D5} ;モザイクロール

E(700)={ 0 D10 2 D10 4 D10 5 D10 6 D10 4 D10 L 2 D10 3 D6 1 D6 }	;�g�̉���
E(800)={6,12,11,10,9,8,12,7,5,4,3,2,1, L 0} // コナミスネア+クローズハット
E(801) = {12,6, L 2} // クローズハット単体
E(802) = {12,8,7,5,5,5,12,8,5,5,4,4,4,3,3,3,2,2, L 2} // オープンハット+クローズハット
E(803) = {10,14,13,12,10,10,12,9,7,7,5,5,12,6,3,3,2,2,1,1, L 0} // シンバル+クローズハット
E(804) = {10,-10, L 0}

E(900) = { L 0 12}

DPCM {

		 c4, "an_kick.dmc",15,0
       	 d4, "snare_CH.dmc",15,0
				 e4, "rocktom.dmc",15,0
}

@OP(1) ={@R $05,$03,$10,$06,$74,$A1,$13,$F4};シンセ

@OP(3) ={@R $01,$41,$11,$00,$A0,$A0,$83,$95} ; guitar

@OP(16)={@R $A5,$21,$15,$0E,$85,$F4,$AA,$2A};Pad

@OP(11)={@R $07,$81,$2B,$05,$A5,$A5,$03,$03};ビブラフォン

@OP(7) ={@R $03,$21,$59,$04,$F1,$F1,$38,$28};E.Piano2(MA2)


BGM(0){
//A

TR1 t85 r-1
TR2 L [o5 Ev5 l8 dc<b>d c<bag f4.  >c8c4<b4>]2
            
            l8 o4 f4. r-8 r-2 
            l16 o4 r-4 f8>c8c4<b4>

            o5  deded8e8 <b4> c8d8
                cd<br- r-8 b8g4r-4
            o5 deded8e8<b8 r-8 a8b8>c4 r-4r-4 <b4 g4 >r-4r-4r-4


TR3  o6 l16 

TR6 @V11 o6 v13 

TR7,8,9,10
   L  @V7 v9 l4

TR7 o5 ar-gr-      ar-gr-8 g16g16
TR8 o5 fr-er-     fr-dr-8 r-16d16
TR9 o4 dr-<b>r-   cr-<br-8 b16b16
TR10 o4 r-1 r-1

TR7 o5 ar-8.a16gr-8.g16      ar-8a16a16  gr-8 g16g16
TR8 o5 fr-er-       fr-8f16r-16 dr-
TR9 o4 dr-8.d16<br-8.b16   cr-8c16c16 <br-8 b16b16
TR10 o4 r-1 r-1

TR7 o5 ar-8.a16gr-8.g16      ar-8a16a16  gr-8 g16g16
TR8 o5 fr-er-       fr-8f16r-16 dr-
TR9 o4 dr-8.d16<br-8.b16   cr-8c16c16 <br-8 b16b16
TR10 o6 r-4 r-8 e16e16f4e4 r-1

TR7 o5 ar-8.a16 g r-8g16g16
TR8 o5 fr-8.f16 r-r-
TR9 o5 dr-8.d16<b r-8b16b16 
TR10 r-1

TR7 o5  gr-8.g16 ee   ar-8.a16 g r-8 g16g16
TR8 o5  er-      cc   fr-8.f16 d r-8 d16d16
TR9 o5  cr-8.c16<aa>  dr-8.d16<b r-8 b16b16
TR10 o4 r-1 r-1


TR7 o5 e r-8 e16e16 e r-8.e16 d r-8 d16d16 dd
TR8 o5 c r-8 c16c16 c r-8.c16<b r-8 b16b16 bb
TR9 o4 a r-8 a16a16 a r-      g r-8 g16g16 gg   
TR10 o5  r-1 r-4 r-8 g16r-16 r-4 g4


TR11 L v12 [o3  l16 d4. <a>d < e4 >e<b>e8
                 f4. af g4 a8b8 >]2

                 [o3 f4. af g4 a8b8]2

                o3 d4. d<ag8 b>d e8<b8>
                   c4. c<b a4g4

                o3 d4. d<ag8 b>d e8<b8
                    a4.a8a4 r-8 a8

                o3  g4. >g16b16>d4<g8<g8


TR4	L o4  [r-2 l16 Ev801 r-8 d16<d16>r-8 dd]11
TR5 L o4  [l8 c4 r-8.c16 c4 r-4]11

//B
}