//1. 曲名 夢飼い日和 short 8bit ver.
//2. アレンジャー名 rana
//3. 元曲の制作者名 藤井亮太
//4. ボーカル有りの場合は、歌い手の名前　なし
//5. ボーカル有りの場合で、曲にオリジナルの歌詞が存在する場合はその歌詞テキスト　なし


#title		"夢飼い日和 short 8bit ver."
#composer	"藤井亮太"
#Copyright	"nsd.lib, Copyright (c) 2012 S.W. All rights reserved."

#offsetPCM	$C000
#Code		"nsd.bin"
#bgm		1

E(0) = { 13 12 11 8 D1 7 D2 6 L 5 }
E(1) = {12 L 0 }
E(2) = { 12 12 12 12 12 L 0 }

E(3) = {      	06 08 10 11 11 11 10 10 10 10			;StringsA
		09 D8 09 D8 08 D8 08 D8 07 D8 07 D8 L	06 }
E(4)= {		03 05 07 08 D2 07 D4						;StringsB
		06 D8 06 D8 05 D8 05 D8 04 D8 04 D8 L	03}
E(5) = {       	10 07
		13 11 09 07 05 03 02
		04 07 05 04 03 02 02 01
		03 05 04 03 02 02 01 L 01 }
E(7) = {	12 10 9 7 L 5 }
E(8) = {	13 10 9 7 D4 L 1 }
E(9) = {	14 12 10 D4 8 D4 6 D4 5 D1 L 0 }
E(14) = { 02 03 04 05 D4 04 D4 03 D4 02 D4 L 01 }			;Strings C
E(15) = {02 03 04 05 D4 04 D4 03 D4 02 D4 L 01 00 }
E(30) = { (43,15,5) (15,0,50) L 0 R L 0 }
E(40) = { 10 9 8 7 L 0 }									;kirbyR
E(41) = { 12 11 10 9 L 1 }
E(42) = { 15 13 12 11 L 4 }
E(43) = { 14 L 0 }			;kirby part2
E(44) = { 15 L 4 }
E(45) = { 11 D1 9 8 D7 7 D2 L 0}
E(46) = { 15 14 13 12 L 4}
E(47) = { 8 D2 6 5 L 0 }		;kirby part3
E(48) = { 13 12 11 10 L 2}
E(49) = { 2 6 8 5 L 0 }		;kirby melo
E(50) = { 2 6 8 5 3 D8 4 D8 5 D8 6 D8 7 D8 8 D12 L 0}	;kirby longtone
E(51) = { 5 D2 3 2 L 0 }
E(52) = { 3 7 9 L 6 }									;kirby longton2
E(53) = { 7 5 D2 L 0 }
E(461)={	10 07  L 00 }
E(462)={	10 08 07 06 05 04 03 03 02 02 01 01 L 00 }
E(463)={	13 12 10 09 09 08 08 08
			07 07 07 07 06 D8 05 D8 04 D9 03 D10 02 D11 01 D12 L 00 }
E(561)={	 -2 -2 -2 -2 -1 -1 -1 -1 0 0 0 0 L -2 -2 -2 -1 -1 -1 0 0 L 0 }

E(464)= { 10 02 L 00}
E(465)= { 07 D5 06 D6 05 D6 04 D7 03 D9 02 D11 01 D10 L 00 }
E(466)={	11 06 09 05 07 04 05 03 04 02 03 01 02 00 01 L 00 }
E(467)={	08 06 05 04 03 02 D1 L 00 }
E(468)={			  5 2 L 0 }		;kirby drums
E(469)={		    6 3 1 L 0 }
E(470)={		    7 4 2 L 0 }
E(471)={		  8 5 3 1 L 0 }
E(472)={		  9 6 4 2 L 0 }
E(473)={	   10 7 5 3 1 L 0 }
E(474)={	   11 8 6 4 2 L 0 }
E(475)={	    10 9 7 5 3 1 0 D8 1 D8 L 0 }	;kirby drums2
E(476)={	   13 10 8 6 4 2 0 D8 2 D8 L 0 }
E(477)={	 14 11 9 7 5 3 1 0 D8 3 D8 L 0 }
E(478)={	 15 12 10 8 6 4 2 0 D8 4 D8 L 0}
E(479)={	15 12 10 8 6 L 4 }
E(480)={	7 L 0 }		;kirby part2
E(481)={	10 7 5 3 L 0}
E(490)={  15 14 13 11 10 9  8 8 7 7 6 6 5 5 4 4 3 3 3 2 2 2 2 L 1 D5} ;モザイクロール

E(700)={ 0 D10 2 D10 4 D10 5 D10 6 D10 4 D10 L 2 D10 3 D6 1 D6 }	;�g�̉���
E(800)={6,12,11,10,9,8,12,7,5,4,3,2,1, L 0} // コナミスネア+クローズハット
E(801) = {12,6, L 2} // クローズハット単体
E(802) = {12,8,7,5,5,5,12,8,5,5,4,4,4,3,3,3,2,2, L 2} // オープンハット+クローズハット
E(803) = {10,14,13,12,10,10,12,9,7,7,5,5,12,6,3,3,2,2,1,1, L 0} // シンバル+クローズハット
E(804) = {0 L -10 }


;Drum
E(805) = { 14 6 5 4 2 1 L 0 }					;closed hh (d)
E(806) = { 12 6 5 4 2 1 1 1 L 0}			;open hh (e)
E(807) = { 15 13 12 11 9 6 5 4 3 2 L 1 }				;BassDrum (c)
E(808) = { 15 14 13 11 10 9  8 8 7 7 6 6 5 5 4 4 3 3 3 2 2 2 2 1 1 1 1 L 1}				;snare (a)


E(900) = { L 0 12}
E(901) = { L 0 4 12} ;ce>c<
E(902) = { L 0 3 12} ;bd>b<
E(903) = { L 0 3 12} ;a>ca<
 
DPCM {

	c4, "an_kick.dmc",15,0
	c+4, "DPCMkick.dmc",15,0
       	d4, "snare_CH.dmc",15,0
	e4, "rocktom.dmc",15,0
}


BGM(0){


;intro
//Piano and Melody
TR1 t140 o4 @2 l8 Ev5 EC2,3  l8 v15 r-e-b->c rfa-g4 < v5b-8> v15 e-<b-4.>
							b-4 a-4.f4a-4 g4 v7 e-<b->c2 r-4

//Bass
TR2   @1  v12  o3 Ev5 EC2,3 l2 a->d-4.c<g2^8
								f4.b-2>c1^8

//Bass2
TR3 l8 o3 [r-1]3 r-4. b-4.a4

//Drums
TR4 [r-1]4
TR5 o4 l4 [r-1]4


//intro2
//Strings1
TR1 o4 @2 l8 Ev4 r-1 r-2 r-8 l16 d-e-fg a-4. b-2 b-2 b-2 b-1^2 r-8 w8 l8 Ev3 g>dg

//Strings2
TR2 o5 @2 Ev4 EC* l1  b-1^4^8 a2 r-8 f4.g2a-2f2g1 r-2 r-8 w8  D-1 l8 Ev3 o4 g>dg


//Bass2
TR3 l8 o3 a-4.g2 >d-4.<b-8a2 r-8
		  f4.g2 a-2a-2<e-1^1

//Drums
TR4 [r-1]4 [r-1]2
TR5 o4 l4 [r-1]4 [r-1]2



//intro 3
//Piano and Melody
TR1 o5 @2 l8 g4f+8e8r-8gr-8 f+4ef+g r-8 <g>dg
 			 g4f+8e8r-8g  w f+16g16 l8 agf+d r-8 <g>dg

//vocal
TR2   o5 @2 l8 g4f+8e8r-8gr-8 f+4ef+g r-8 <g>dg
 			 g4f+8e8r-8g  w f+16g16 l8 agf+d r-8 <g>dg


//Bass2
TR3 l8 o4 w


TR3 <b2..> d2<e2>  r-8 <b2..> d2 e4. r4

//Drums
TR4 Ev463En561e4 En* Ev466d8 Ev462g8 [Ev461a16a16 Ev462g8 Ev466d8 Ev462g8]6 Ev461a16a16  Ev462g8  Ev466 d4
TR5 o4 l4 [r-1]3 r2. d 



//intro 4
//Piano and Melody
TR1 o5 @2 l8 g4f+8e8r-8gr-8 f+r-f+ r-g2
			 c4g8c4 r-8 c8d8e-2b-4.a-4f1 
 			 
//vocal
TR2   @0  o5 @2 l8 g4f+8e8r-8gr-8 f+r-f+ r-g2
			 c4g8c4 r-8 c8d8e-2b-4.a-4f2 r-2 r-2 r-8 l8  D0 o5 Ev3 EC* @1  <b-b->e-

//Bass2
TR3 l8 o4



TR3 <b4.> c2 c+4d4e-4.  r-4
		<a4. a4 ab>c2<b2> r-8 
	  ff<b->f4<b-b->f1 r-8

//Drums
TR4 Ev463En561e4 En* Ev466d8 Ev462g8 [Ev461a16a16 Ev462g8 Ev466d8 Ev462g8]9 Ev461a16a16 r-8 r-8 r-4 Ev466 d8d4 
TR5 o4 l4 cccc cccc cccc cccc cccc c r-8 r-4 d8d4 



//A;

TR1 [r-1]8 r-1
TR2 Ev3 EC*  f4e-8<b-4>e-4 f4e-fg r-8
			 e-e-b- b-4a-g4a-ge-4 de-f r-8 <b-b->e-
			 f4e-8<b-4>e-4 f4e-fg r-8
			 e-e-b- b-4a-g4a-4b-4 >e-d<b-4 r-8 r-8<b-16b-16>

TR3 [o4 e-4.d2c2<b-2 r-8 a-4.g2f2b-4. r-8 r-8]2

TR4 Ev463En561e4 En* Ev466d8 Ev462g8 [Ev461a16a16 Ev462g8 Ev466d8 Ev462g8]15
TR5 c1 [r-1]3 c8c4r-4r-4 r-8 r-1 c8c4r-4r-4r-8 r2. d4



//B;

TR1 Ev5 EC2,3 l8 v7 r-a->ce-< r- <b->df r-gb->d< r- >ce-g <
				r- fa->c< r- <b->df r- e-gb->e-d<b-g<
				 r-a->ce-< r- <b->df r-gb->d< r- >ce-g <
				 r-a->ce-a-e-c<a- >e-c<a-e-<ca-e-c l16 ceg>d gb>dg b>dgeb >dgb>
TR2  g8g8g8.g16f8e-8 r-8  e-8 d8c8d16c8 d8.e-4 r-4
	 g8g8g8fe- b-8. g2 w16 r-4 r-8 <b-16b-16>

	 g8g8g8.g16f8e-8 r-8  e-8 d8c8d16c8 d8.e-4 r-4
	 g8g8g8f8e-8f8g4a-8g8a-8g8a-8g8a-8g4 r-4 r-8 e8g+8a8
TR3 a-4.b-2g2>c2< r-8 f4.b-2e-1 r-8
	  a-4.b-2g2>c2< r-8 [a-8>a-8<]8  g4.<g2> r-8
TR4 Ev463En561e4 En* Ev466d8 Ev462g8 [Ev461a16a16 Ev462g8 Ev466d8 Ev462g8]15
TR5 [c4d4r-8 c8d4  c8.c16d8c8 r-8c8d8c8]3 cccc cccc 


//C;
TR1  o5 Ev4 EC* @1 v7 e4e4e8e8e8e4 >g+8f+8<e4. r-8
	 o5 e8c+8<b8>c+8d+8c+8<b8a8 d+4e8e4.< b8b8>d+8<
	 o5 e4e4e8e8e8e4 e8f+8g+4 r-4
	 o5 e8<b4> c+8<g+4> g+4 r-4.r-4r-8r-8r-8  w8

TR2   b4b4a8g+8a8b4 >e8d+8<b4. r-8
	  b8a8g+8a8>c+8<b8a8g+8 f+4g+8g+4. e8g+8a8
	  b4b4a8g+8a8b4 >e8d+8e4< r-4
	  b8b4 >e8<b4 g+4a4.g+4f+8e8d+8 d+4e8e1

TR3 l8 [a>a<]2 [b>b<]2 [g+>g+<]2 [>c+>c+<<]2 [f+>f+<]2 [b>b<]2 [e>e<]4 [a>a<]2 [b>b<]2 o4 [c>c<]2 [c+>c+<]2
		o3 [f+>f+<]4 [a>a<]4 [e>e<]8
TR4 Ev463En561e4. d+4. f4
	Ev463En561e4  En* Ev466d8 Ev462g8 [Ev461a16a16 Ev462g8 Ev466d8 Ev462g8]15
TR5 [cccc]16 cccc8


//outro

TR1 o5 Ev3 @2 v15 b1^1 f+4.d+2g+1  r-8
	   c+4.d+2 e4d+8<b8>c+8 r-8 g+8f+8e8 a8f+8a8 b4a8b8 >c+4.c+8<
TR2 o5 D-1 Ev4 @2 r-2. r-8 f+4.d+2g+1  r-8
	   c+4.d+2 e4d+8<b8>c+8 r-8 g+8f+8e8 a8f+8a8 b4a8 r-8r-8

	   D0 o3 l8 g+>c+g+f+e<b>c+1

TR3 [f+>f+<]4 [g+>g+<]4
	[c+>c+<]2 [d+>d+<]2 [e>e<]2 [f+>f+<]2 [b>b<]3 b>b<
	o3 l8 g+>c+g+f+e<b<a1^1
TR4 Ev463En561e4  En* Ev466d8 Ev462g8 [Ev461a16a16 Ev462g8 Ev466d8 Ev462g8]14 Ev461a16a16 Ev462g8 Ev466d8
TR4 Ev463En561e1 En*
TR5 c+1


}

