#title		"secret sea"
#composer	"rana"
#Copyright	"nsd.lib, Copyright (c) 2012 S.W. All rights reserved."

#offsetPCM	$C000
#Code		"nsd.bin"
#bgm		4

E(0) = { 13 12 11 8 D1 7 D2 6 L 5 }
E(1) = {12 L 0 }
E(2) = { 12 12 12 12 12 L 0 }

E(3) = {      	06 08 10 11 11 11 10 10 10 10			;StringsA
		09 D8 09 D8 08 D8 08 D8 07 D8 07 D8 L	06 }
E(4)= {		03 05 07 08 D2 07 D4						;StringsB
		06 D8 06 D8 05 D8 05 D8 04 D8 04 D8 L	03}
E(5) = {       	10 07
		13 11 09 07 05 03 02
		04 07 05 04 03 02 02 01
		03 05 04 03 02 02 01 L 01 }
E(7) = {	12 10 9 7 L 5 }
E(8) = {	13 10 9 7 D4 L 1 }
E(9) = {	14 12 10 D4 8 D4 6 D4 5 D1 L 0 }
E(14) = { 02 03 04 05 D4 04 D4 03 D4 02 D4 L 01 }			;Strings C
E(15) = {02 03 04 05 D4 04 D4 03 D4 02 D4 L 01 00 }
E(30) = { (43,15,5) (15,0,50) L 0 R L 0 }
E(40) = { 10 9 8 7 L 0 }									;kirbyR
E(41) = { 12 11 10 9 L 1 }
E(42) = { 15 13 12 11 L 4 }
E(43) = { 14 L 0 }			;kirby part2
E(44) = { 15 L 4 }
E(45) = { 11 D1 9 8 D7 7 D2 L 0}
E(46) = { 15 14 13 12 L 4}
E(47) = { 8 D2 6 5 L 0 }		;kirby part3
E(48) = { 13 12 11 10 L 2}
E(49) = { 2 6 8 5 L 0 }		;kirby melo
E(50) = { 2 6 8 5 3 D8 4 D8 5 D8 6 D8 7 D8 8 D12 L 0}	;kirby longtone
E(51) = { 5 D2 3 2 L 0 }
E(52) = { 3 7 9 L 6 }									;kirby longton2
E(53) = { 7 5 D2 L 0 }
E(461)={	10 07  L 00 }
E(462)={	10 08 07 06 05 04 03 03 02 02 01 01 L 00 }
E(463)={	13 12 10 09 09 08 08 08
			07 07 07 07 06 D8 05 D8 04 D9 03 D10 02 D11 01 D12 L 00 }
E(561)={	 -2 -2 -2 -2 -1 -1 -1 -1 0 0 0 0 L -2 -2 -2 -1 -1 -1 0 0 L 0 }

E(464)= { 10 02 L 00}
E(465)= { 07 D5 06 D6 05 D6 04 D7 03 D9 02 D11 01 D10 L 00 }
E(466)={	11 06 09 05 07 04 05 03 04 02 03 01 02 00 01 L 00 }
E(467)={	08 06 05 04 03 02 D1 L 00 }
E(468)={			  5 2 L 0 }		;kirby drums
E(469)={		    6 3 1 L 0 }
E(470)={		    7 4 2 L 0 }
E(471)={		  8 5 3 1 L 0 }
E(472)={		  9 6 4 2 L 0 }
E(473)={	   10 7 5 3 1 L 0 }
E(474)={	   11 8 6 4 2 L 0 }
E(475)={	    10 9 7 5 3 1 0 D8 1 D8 L 0 }	;kirby drums2
E(476)={	   13 10 8 6 4 2 0 D8 2 D8 L 0 }
E(477)={	 14 11 9 7 5 3 1 0 D8 3 D8 L 0 }
E(478)={	 15 12 10 8 6 4 2 0 D8 4 D8 L 0}
E(479)={	15 12 10 8 6 L 4 }
E(480)={	7 L 0 }		;kirby part2
E(481)={	10 7 5 3 L 0}
E(490)={  15 14 13 11 10 9  8 8 7 7 6 6 5 5 4 4 3 3 3 2 2 2 2 L 1 D5} ;モザイクロール

E(700)={ 0 D10 2 D10 4 D10 5 D10 6 D10 4 D10 L 2 D10 3 D6 1 D6 }	;�g�̉���
E(800)={6,12,11,10,9,8,12,7,5,4,3,2,1, L 0} // コナミスネア+クローズハット
E(801) = {12,6, L 2} // クローズハット単体
E(802) = {12,8,7,5,5,5,12,8,5,5,4,4,4,3,3,3,2,2, L 2} // オープンハット+クローズハット
E(803) = {10,14,13,12,10,10,12,9,7,7,5,5,12,6,3,3,2,2,1,1, L 0} // シンバル+クローズハット
E(804) = {0 L -10 }


;Drum
E(805) = { 14 6 5 4 2 1 L 0 }					;closed hh (d)
E(806) = { 12 6 5 4 2 1 1 1 L 0}			;open hh (e)
E(807) = { 15 13 12 11 9 6 5 4 3 2 L 1 }				;BassDrum (c)
E(808) = { 15 14 13 11 10 9  8 8 7 7 6 6 5 5 4 4 3 3 3 2 2 2 2 1 1 1 1 L 1}				;snare (a)


E(900) = { L 0 12}

DPCM {

	c4, "an_kick.dmc",15,0
       	d4, "snare_CH.dmc",15,0
	e4, "rocktom.dmc",15,0
}


BGM(0){

TR1 o2 Ev5 EC2,3 l8 [fgab>c<bag]4
                    [efgabagf]2
                    [fgab>c<bag]2
                    [gab>cdc<ba]2
TR3 o6 t60 l8 [r-1]2 e2dedc<b2g2>
                     d2cdc<ba2e2>
                     e2dedc<b2g2>
                     f2gabg>edc<bagfe
}


BGM(1){
TR1     r-1 Ev3  EC* l4 [r-1]16 o5
		
TR3	r-1	o4	[cegb]4 [<b>df+a]4 
			[cegb]4 [<b>df+a]4

			
TR1     Ev3  e2. d8c8<b1
			 a2. g8f+8e1

			 d2^8 e8f+8g8a1
			 g2^8 a8b8g8>d1<

		o5	 e2. d8c8<b1
			 a2. g8f+8e1

			 d2^8 e8d8e8d1
			 g2^8 f+8g8a8b1
		
TR3		o4	[cegb]4 [<b>df+a]4 
			[cegb]4 [<b>df+a]4

TR1 o5 e2^8 e8d8c8 b4.b8a8g8a8b8
	   g2^8 f+8g8a g4f+4e4d8

	   c2^8 c8<b8a8b8>c8 d8e8f+8e8d8c8
	   <b8a8>r-4 g8f+8r-4 e8d8r-4 c8<b8>r-4

TR3 o3 [a>cea<]2 [gb>dg<]2
		[a>cea<]2 [>df+a>d<<]2



}


BGM(2){

//intro
TR1  t108  Ev3 o5 
TR2  v12 o5   Ev5 EC2,3 l16 [efedefed]16
TR3  o5 l1 ecdg ecd<g>

TR2 [efedefed]16
TR3  o5 l1 ecdg ecd<g>

TR2 l4 efga2 gfe
TR3 l4 cdef2 edc

}






BGM(3)
{

TR1 t140  @1 o2 l4 Ev5 EC2,3 l8 [fcfc]4 [gdgd]4 [e<b>e<b>]4 [aeae]4
TR2 
TR3 o4 l8 [fcfc]4 [gdgd]4 [e<b>e<b>]4 [aeae]4
TR4 o4 [Ev462g8 Ev461a16a16]32

}








