曲名		"モザイクロール"
作曲	"DECO*27"
作者	"nsd.lib, Copyright (c) 2012 S.W. All rights reserved."

#offsetPCM	$C000
コード		"nsd_vrc6.bin"
音楽数		1

E(0) = { 13 12 11 8 D1 7 D2 6 L 5 }
E(1) = {12 L 0 }
E(2) = { 12 12 12 12 12 L 0 }

E(3) = {      	06 08 10 11 11 11 10 10 10 10			;StringsA
		09 D8 09 D8 08 D8 08 D8 07 D8 07 D8 L	06 }
E(4)= {		03 05 07 08 D2 07 D4						;StringsB
		06 D8 06 D8 05 D8 05 D8 04 D8 04 D8 L	03}
エンベロープ(5) = {       	10 07
		13 11 09 07 05 03 02
		04 07 05 04 03 02 02 01
		03 05 04 03 02 02 01 L 01 }
E(7) = {	12 10 9 7 L 5 }
E(8) = {	13 10 9 7 D4 L 1 }
E(9) = {	14 12 10 D4 8 D4 6 D4 5 D1 L 0 }
E(14) = { 02 03 04 05 D4 04 D4 03 D4 02 D4 L 01 }			;Strings C
E(15) = {02 03 04 05 D4 04 D4 03 D4 02 D4 L 01 00 }
E(30) = { (43,15,5) (15,0,50) L 0 R L 0 }
E(40) = { 10 9 8 7 L 0 }									;kirbyR
E(41) = { 12 11 10 9 L 1 }
E(42) = { 15 13 12 11 L 4 }
E(43) = { 14 L 0 }			;kirby part2
E(44) = { 15 L 4 }
E(45) = { 11 D1 9 8 D7 7 D2 L 0}
E(46) = { 15 14 13 12 L 4}
E(47) = { 8 D2 6 5 L 0 }		;kirby part3
E(48) = { 13 12 11 10 L 2}
E(49) = { 2 6 8 5 L 0 }		;kirby melo
E(50) = { 2 6 8 5 3 D8 4 D8 5 D8 6 D8 7 D8 8 D12 L 0}	;kirby longtone
E(51) = { 5 D2 3 2 L 0 }
E(52) = { 3 7 9 L 6 }									;kirby longton2
E(53) = { 7 5 D2 L 0 }
E(461)={	10 07  L 00 }
E(462)={	10 08 07 06 05 04 03 03 02 02 01 01 L 00 }
E(463)={	13 12 10 09 09 08 08 08
			07 07 07 07 06 D8 05 D8 04 D9 03 D10 02 D11 01 D12 L 00 }
E(561)={	 -2 -2 -2 -2 -1 -1 -1 -1 0 0 0 0 L -2 -2 -2 -1 -1 -1 0 0 L 0 }
E(464)={	10 02 L 00}
E(465)= {	07 D7 06 D7 05 D7 04 D8 03 D8 02 D9 01 D14 L 00 }
E(466)={	11 06 09 05 07 04 05 03 04 02 03 01 02 00 01 L 00 }
E(467)={	08 06 05 04 03 02 D1 L 00 }
E(468)={			  5 2 L 0 }		;kirby drums
E(469)={		    6 3 1 L 0 }
E(470)={		    7 4 2 L 0 }
E(471)={		  8 5 3 1 L 0 }
E(472)={		  9 6 4 2 L 0 }
E(473)={	   10 7 5 3 1 L 0 }
E(474)={	   11 8 6 4 2 L 0 }
E(475)={	    10 9 7 5 3 1 0 D8 1 D8 L 0 }	;kirby drums2
E(476)={	   13 10 8 6 4 2 0 D8 2 D8 L 0 }
E(477)={	 14 11 9 7 5 3 1 0 D8 3 D8 L 0 }
E(478)={	 15 12 10 8 6 4 2 0 D8 4 D8 L 0}
E(479)={	15 12 10 8 6 L 4 }
E(480)={	7 L 0 }		;kirby part2
E(481)={	10 7 5 3 L 0}
E(490)={  15 14 13 11 10 9  8 8 7 7 6 6 5 5 4 4 3 3 3 2 2 2 2 L 1 D5} ;モザイクロール

E(700)={ 0 D10 2 D10 4 D10 5 D10 6 D10 4 D10 L 2 D10 3 D6 1 D6 }	;�g�̉���
E(800)={6,12,11,10,9,8,12,7,5,4,3,2,1, L 0} // コナミスネア+クローズハット
E(801) = {12,6, L 2} // クローズハット単体
E(802) = {12,8,7,5,5,5,12,8,5,5,4,4,4,3,3,3,2,2, L 2} // オープンハット+クローズハット
E(803) = {10,14,13,12,10,10,12,9,7,7,5,5,12,6,3,3,2,2,1,1, L 0} // シンバル+クローズハット
E(804) = {10,-10, L 0}

E(900) = { L 0 12}

DPCM {

		 c4, "an_kick.dmc",15,0
       	 d4, "snare_CH.dmc",15,0
				 e4, "rocktom.dmc",15,0
}







BGM(0){
//Vocaloid Megu Intro

TR1 t147 l8 _-1 Ev3 o5 l1 [r-]8
TR2 o2 Ev490 _-1 [l8 aaaa>  P3,1,3,0 c<aga]7 r-1
TR3 o3 q7 _-1 [l8 aaaa>  P3,1,3,0 c<aga]8
TR4	o4  Ev463En561e4  En* Ev490 l4 [dddd]3 dd l16 dddd
TR4 o4  Ev463En561e4  En* Ev490 l4 [dddd]2 ddd d dr-r-
TR5 o4  l4 c [r-]14 l8 r- c l4 ccc ccccc cccc ccr-r-
TR6 l1 _-1 [r-]8
TR7 l1 _-1 [r-]8
TR8 o2 _-1 Ev30 [l8 aaaa>  P3,1,3,0  c<aga]8


//Intro B
TR1 o5 Ev5 EC2,3 l8 @2 [a e  b>c<b>c < b>c gegegege<]4
TR2 o2 Ev30 [a2 >c32c32c4..< g2 f32f32f4..]4
TR3 o3 Ev30 [a2 >c32c32c4..< g2 f32f32f4..]4
TR4 v15 _5 o5
	l16	Ev463 En561 e4 En* Ev466d8 Ev462g8  Ev461a16a16 Ev462g8 Ev466d8 Ev462g8
			[Ev461a8 Ev462g8 Ev466d8 Ev462g8 Ev461a16a16 Ev462g8 Ev466d8 Ev462g8]3
			l16	Ev463 En561 e2  En* Ev461a16a16 Ev462g8 Ev466d8 Ev462g8
			[Ev461a8 Ev462g8 Ev466d8 Ev462g8 Ev461a16a16 Ev462g8 Ev466d8 Ev462g8]3
TR5 o4 l4 [cccc]8
TR6 o5 Ev5 EC2,3 l8 @2 r-32 [a e  b>c<b>c < b>c gegegege<]4
TR7 [r-1]4 Ev30 [o3 a4b8>c4. r4 r-1]2
TR8 o2 Ev30 l2  [a2 >c32c32c4..< g2 f32f32f4..]4

//A

TR1 [r-1]8
TR2 [o2 Ev30 a4. >c4< r-4. g4. f4 l8 f>f<f]4
TR4 v15 _5 o5
	l16	Ev463 En561 e4 En* Ev466d8 Ev462g8  Ev461a16a16 Ev462g8 Ev466d8 Ev462g8
			[Ev461a8 Ev462g8 Ev466d8 Ev462g8 Ev461a16a16 Ev462g8 Ev466d8 Ev462g8]7
TR5 o4 l4 [cccc]8
TR3	[o3 			l4 a4. >c4< r-4. g4. f4 l8 f>f<f]4
TR6 [r-1]8
TR7 [r-1]8
TR8 [o2 Ev30 l4 a4. >c4< r-4. g4. f4 l8 f>f<f]4

//Break

TR1 o5 Ev5 EC2,3 l8 @2 [a e  b>c<b>c < b>c gegegege<]4
TR2 o2 Ev30 [a2 >c32c32c4..< g2 f32f32f4..]4
TR3 o3 Ev30 [a2 >c32c32c4..< g2 f32f32f4..]4
TR4 v15 _5 o5
	l16	Ev463 En561 e4 En* Ev466d8 Ev462g8   Ev461a16a16 Ev462g8 Ev466d8 Ev462g8
			[Ev461a8 Ev462g8 Ev466d8 Ev462g8 Ev461a16a16 Ev462g8 Ev466d8 Ev462g8]3
			l16	Ev463 En561 e2  En* Ev461a16a16 Ev462g8 Ev466d8 Ev462g8
			[Ev461a8 Ev462g8 Ev466d8 Ev462g8 Ev461a16a16 Ev462g8 Ev466d8 Ev462g8]3
TR5 o4 l4 [cccc]8
TR6 o5 Ev5 EC2,3 l8 @2 [a e  b>c<b>c < b>c gegegege<]4
TR7 Ev30 [o3 a4b8>c4. r4 r-1]4
TR8 o2 Ev30 l2  [a2 >c32c32c4..< g2 f32f32f4..]4

//A'
TR1 o5 Ev5 EC2,3 [l8 r- >c<bgagec <g8.>d8.c8r-8 l8 cde
 								 l8 e8.d8.c8 r-8 <b> r-8 c r-d r-e r- gab ]2
TR2 [o2 Ev30 a4. >c4< r-4. g4. f4 l8 f>f<f]4
TR4 v15 _5 o5
	l16	Ev463 En561 e4 En* Ev466d8 Ev462g8  Ev461a16a16 Ev462g8 Ev466d8 Ev462g8
			[Ev461a8 Ev462g8 Ev466d8 Ev462g8 Ev461a16a16 Ev462g8 Ev466d8 Ev462g8]7
TR5 o4 l4 [cccc]8
TR3	[o3 			l4 a4. >c4< r-4. g4. f4 l8 f>f<f]4
TR6 [r-1]8
TR7 [r-1]8
TR8 [o2 Ev30 l4 a4. >c4< r-4. g4. f4 l8 f>f<f]4

//B

TR1 o6 Ev5 EC2,3 l2 cd l4<bg> r-2
TR2 l1 o2 f r-1
TR4 v15 _5 o5
	l16	Ev463 En561 e1  r-2 r-2
TR5 o4 l4 cc cc l8 c edc e4 r-r-
TR3 l1 o3 f r-1
TR6 r-1 r-1
TR7 r-1 r-1
TR8 l1 o2 f r-1


//C
TR1 [r-1]8
TR4 v15 _5 o5
	l16	Ev463 En561 e4 En* Ev490 l4 [dddd]3 dd l16 dddd l4 Ev463 En561 e4 En* Ev490 [dddd]3  dr-r-
TR5 o4 l4 [cccc]7 cc r-r-

TR6 [r-1]8
TR7 [r-1]8
TR2 l8 o2 Ev30 [g>g<g>g< e->e-<e->e-< f>f<f>f< b->b-<a>a<]3
								g>g<g>g< e->e-<e->e-< f>f<f>f< r-r-r-r-
TR3 o3 l8 [g>g<g>g< e->e-<e->e-< f>f<f>f< b->b-<a>a<]3
								g>g<g>g< e->e-<e->e-< f>f<f>f< r-r-r-r-
TR8 l8 o2 Ev30 [g>g<g>g< e->e-<e->e-< f>f<f>f< b->b-<a>a<]3
								g>g<g>g< e->e-<e->e-< f>f<f>f< r-r-r-r-



//Break Point 2

TR1 o5 Ev5 EC2,3 l8 @2 [a e  b>c<b>c < b>c gegegege<]4
TR2 o2 Ev30 [a2 >c32c32c4..< g2 f32f32f4..]4
TR3 o3 Ev30 [a2 >c32c32c4..< g2 f32f32f4..]4
TR4 v15 _5 o5
									l16	Ev463 En561 e4 En* Ev466d8 Ev462g8   Ev461a16a16 Ev462g8 Ev466d8 Ev462g8
											[Ev461a8 Ev462g8 Ev466d8 Ev462g8 Ev461a16a16 Ev462g8 Ev466d8 Ev462g8]3
											l16	Ev463 En561 e2  En* Ev461a16a16 Ev462g8 Ev466d8 Ev462g8
											[Ev461a8 Ev462g8 Ev466d8 Ev462g8 Ev461a16a16 Ev462g8 Ev466d8 Ev462g8]3
TR5 o4 l4 [cccc]8
TR6 o5 Ev5 EC2,3 l8 @2 [a e  b>c<b>c < b>c gegegege<]4
TR7 Ev30 [o3 a4b8>c4. r4 r-1]4
TR8 o2 Ev30 l2  [a2 >c32c32c4..< g2 f32f32f4..]4

//A
TR1 o5 Ev5 EC2,3 l8 r-r-  dc    r-r- r-d
 										c r-  r-r-  d c  r-r-
										r-d   cr-   r-r- d c
										r-r-  r-d 　cr-  r-r-
										d c   r-r-  r-d  c r- //キメ
										r-r-  dc    r-r- r-d
										cr-   r-r-  r-r- dc
										r-r-  r-d   cr-  dc
TR2 [o2 Ev30 a4. >c4< r-4. g4. f4 l8 f>f<f]4
TR4 v15 _5 o5
	l16	Ev463 En561 e4 En* Ev466d8 Ev462g8  Ev461a16a16 Ev462g8 Ev466d8 Ev462g8
			[Ev461a8 Ev462g8 Ev466d8 Ev462g8 Ev461a16a16 Ev462g8 Ev466d8 Ev462g8]7
TR5 o4 l4 [cccc]8
TR3	[o3 			l4 a4. >c4< r-4. g4. f4 l8 f>f<f]4
TR6 [r-1]8
TR7 [r-1]8
TR8 [o2 Ev30 l4 a4. >c4< r-4. g4. f4 l8 f>f<f]4



//A'
TR1 o4 Ev5 EC* En900 [a1 g2f2]4
TR2 [o2 Ev30 a4. >c4< r-4. g4. f4 l8 f>f<f]4
TR4 v15 _5 o5
	l16	Ev463 En561 e4 En* Ev466d8 Ev462g8  Ev461a16a16 Ev462g8 Ev466d8 Ev462g8
			[Ev461a8 Ev462g8 Ev466d8 Ev462g8 Ev461a16a16 Ev462g8 Ev466d8 Ev462g8]7
TR5 o4 l4 [cccc]8
TR3	[o3 			l4 a4. >c4< r-4. g4. f4 l8 f>f<f]4
TR6 [r-1]8
TR7 [r-1]8
TR8 [o2 Ev30 l4 a4. >c4< r-4. g4. f4 l8 f>f<f]4



//B

TR1 o6 Ev5 f1 r-2 En* r-2
TR2 l1 o2 f r-2 r-2
TR4 v15 _5 o5
	l16	Ev463 En561 e1  r-2 r-2
TR5 o4 l4 cc cc l8 c edc e4 r-r-
TR3 l1 o3 f r-2 r-2
TR6 r-1 r-2 r-2
TR7 r-1 r-2 r-2
TR8 l1 o2 f r-2 r-2

//solo

TR1 o5 Ev5 @1 d4 d4 l8 c <b-fb-> c<b->cd4 d e-f r- fb-f>c<fb-f>c<f>d<f>c<fb- r-
		o4 En900 l2 fb->cd fb->cd
TR4 v15 _5 o5
	l16	Ev463 En561 e4 En* Ev490 l4 [dddd]3 dd l16 dddd l4 Ev463 En561 e4 En* Ev490 [dddd]3  dd l16 dddd
TR5 o4 l4 [cccc]7 cc cc

TR6 [r-1]8
TR7 [r-1]8
TR2 l8 o2 Ev30 [g>g<g>g< e->e-<e->e-< f>f<f>f< b->b-<a>a<]4
TR3 o3 l8 [g>g<g>g< e->e-<e->e-< f>f<f>f< b->b-<a>a<]4
TR8 l8 o2 Ev30 [g>g<g>g< e->e-<e->e-< f>f<f>f< b->b-<a>a<]4

//Break

TR1 o5 Ev5 @2 o5 l1b-fb-f l2 b-fb-f l4 b-fb-fb-f r-r-
TR4 v15 _5 o5
	l16	Ev463 En561 e1 [r-1]7
TR5 o4 l4 cr-r-r- [r-1]7

TR2 l8 o2 Ev30 [r-1]8
TR3 o3 l8 q255 d>d<d>d< e->e-<e->e-< f>f<f>f< <b->b-<a>a
  						 d>d<d>d< e->e-<e->e-< f>f<f+>f+< g>g<g>g
							 d>d<d>d< e->e-<e->e-< f>f<f>f< <b->b-<a>a
							   						 d>d<d>d< e->e-<e->e-< f>f<f>f<r-r-r-r
TR6 [r-1]8
TR7 o5 Ev5 @2 o5 l4 b-b-r-r->ccdd <b-b-r-r->ccdd<
										b-b->cc<aab-b- b-b- >cc<aab-b-
TR8	l8 o2 [r-1]4 v5 d>d<d>d< v7  e->e-<e->e-<  v9 f>f<f>f<  v11 <b->b-<a>a
  				Ev30		 d>d<d>d< e->e-<e->e-< f>f<f>f< r-r-r-r-

//C
TR1 [r-1]8
TR4 v15 _5 o5
	l16	Ev463 En561 e4 En* Ev490 l4 [dddd]3 dd l16 dddd l4 Ev463 En561 e4 En* Ev490 [dddd]3  ddd
TR5 o4 l4 [cccc]7 cc cc

TR6 [r-1]8
TR7 [r-1]8
TR2 l8 o2 Ev30 _1 [g>g<g>g< e->e-<e->e-< f>f<f>f< b->b-<a>a<]3
								g>g<g>g< e->e-<e->e-< f>f<f>f< b->b-<a>a<
TR3 o3 l8 _1 [g>g<g>g< e->e-<e->e-< f>f<f>f< b->b-<a>a<]3
								g>g<g>g< e->e-<e->e-< f>f<f>f< b->b-<a>a<
TR8 l8 o2 Ev30 _1 [g>g<g>g< e->e-<e->e-< f>f<f>f< b->b-<a>a<]3
								g>g<g>g< e->e-<e->e-< f>f<f>f< b->b-<a>a<

//outro
TR1 o5 Ev5 En* EC2,3 l8 @2 _1 [a e  b>c<b>c < b>c gegegege<]4
TR2 o2 Ev30 _1 [a2 >c32c32c4..< g2 f32f32f4..]4
TR3 o3 Ev30 _1 [a2 >c32c32c4..< g2 f32f32f4..]4
TR4 v15 _5 o5
																	l16	Ev463 En561 e4 En* Ev466d8 Ev462g8   Ev461a16a16 Ev462g8 Ev466d8 Ev462g8
																			[Ev461a8 Ev462g8 Ev466d8 Ev462g8 Ev461a16a16 Ev462g8 Ev466d8 Ev462g8]3
																			l16	Ev463 En561 e2  En* Ev461a16a16 Ev462g8 Ev466d8 Ev462g8
																			[Ev461a8 Ev462g8 Ev466d8 Ev462g8 Ev461a16a16 Ev462g8 Ev466d8 Ev462g8]3
TR5 o4 l4 [cccc]7 cc l8 deee
TR6 o5 Ev5 EC2,3 l8 @2 _1 [a e  b>c<b>c < b>c gegegege<]4
TR7 Ev30 _1 [o3 a4b8>c4. r4 r-1]4
TR8 o2 Ev30 l2 _1 [a2 >c32c32c4..< g2 f32f32f4..]4



}
