#title		"Smily Maid Magic"
#composer	"AKicafe Project"
#Copyright	"nsd.lib, Copyright (c) 2012 S.W. All rights reserved."

#offsetPCM	$C000
#code		"nsd.bin"
#bgm		1

E(0) = { 13 12 11 8 D1 7 D2 6 L 5 }
E(1) = {12 L 0 }
E(2) = { 12 12 12 12 12 L 0 }

E(3) = {      	06 08 10 11 11 11 10 10 10 10			;StringsA
		09 D8 09 D8 08 D8 08 D8 07 D8 07 D8 L	06 }
E(4)= {		03 05 07 08 D2 07 D4						;StringsB
		06 D8 06 D8 05 D8 05 D8 04 D8 04 D8 L	03}
E(5) = {       	10 07
		13 11 09 07 05 03 02
		04 07 05 04 03 02 02 01
		03 05 04 03 02 02 01 L 01 }
E(7) = {	12 10 9 7 L 5 }
E(8) = {	13 10 9 7 D4 L 1 }
E(9) = {	14 12 10 D4 8 D4 6 D4 5 D1 L 0 }
E(14) = { 02 03 04 05 D4 04 D4 03 D4 02 D4 L 01 }			;Strings C
E(15) = {02 03 04 05 D4 04 D4 03 D4 02 D4 L 01 00 }
E(30) = { (43,15,5) (15,0,50) L 0 R L 0 }
E(40) = { 10 9 8 7 L 0 }									;kirbyR
E(41) = { 12 11 10 9 L 1 }
E(42) = { 15 13 12 11 L 4 }
E(43) = { 14 L 0 }			;kirby part2
E(44) = { 15 L 4 }
E(45) = { 11 D1 9 8 D7 7 D2 L 0}
E(46) = { 15 14 13 12 L 4}
E(47) = { 8 D2 6 5 L 0 }		;kirby part3
E(48) = { 13 12 11 10 L 2}
E(49) = { 2 6 8 5 L 0 }		;kirby melo
E(50) = { 2 6 8 5 3 D8 4 D8 5 D8 6 D8 7 D8 8 D12 L 0}	;kirby longtone
E(51) = { 5 D2 3 2 L 0 }
E(52) = { 3 7 9 L 6 }									;kirby longton2
E(53) = { 7 5 D2 L 0 }
E(461)={	10 07  L 00 }
E(462)={	10 08 07 06 05 04 03 03 02 02 01 01 L 00 }
E(463)={	13 12 10 09 09 08 08 08
			07 07 07 07 06 D8 05 D8 04 D9 03 D10 02 D11 01 D12 L 00 }
E(561)={	 -2 -2 -2 -2 -1 -1 -1 -1 0 0 0 0 L -2 -2 -2 -1 -1 -1 0 0 L 0 }

E(464)= { 10 02 L 00}
E(465)= { 07 D5 06 D6 05 D6 04 D7 03 D9 02 D11 01 D10 L 00 }
E(466)={	11 06 09 05 07 04 05 03 04 02 03 01 02 00 01 L 00 }
E(467)={	08 06 05 04 03 02 D1 L 00 }
E(468)={			  5 2 L 0 }		;kirby drums
E(469)={		    6 3 1 L 0 }
E(470)={		    7 4 2 L 0 }
E(471)={		  8 5 3 1 L 0 }
E(472)={		  9 6 4 2 L 0 }
E(473)={	   10 7 5 3 1 L 0 }
E(474)={	   11 8 6 4 2 L 0 }
E(475)={	    10 9 7 5 3 1 0 D8 1 D8 L 0 }	;kirby drums2
E(476)={	   13 10 8 6 4 2 0 D8 2 D8 L 0 }
E(477)={	 14 11 9 7 5 3 1 0 D8 3 D8 L 0 }
E(478)={	 15 12 10 8 6 4 2 0 D8 4 D8 L 0}
E(479)={	15 12 10 8 6 L 4 }
E(480)={	7 L 0 }		;kirby part2
E(481)={	10 7 5 3 L 0}
E(490)={  15 14 13 11 10 9  8 8 7 7 6 6 5 5 4 4 3 3 3 2 2 2 2 L 1 D5} ;モザイクロール

E(700)={ 0 D10 2 D10 4 D10 5 D10 6 D10 4 D10 L 2 D10 3 D6 1 D6 }	;�g�̉���
E(800)={6,12,11,10,9,8,12,7,5,4,3,2,1, L 0} // コナミスネア+クローズハット
E(801) = {12,6, L 2} // クローズハット単体
E(802) = {12,8,7,5,5,5,12,8,5,5,4,4,4,3,3,3,2,2, L 2} // オープンハット+クローズハット
E(803) = {10,14,13,12,10,10,12,9,7,7,5,5,12,6,3,3,2,2,1,1, L 0} // シンバル+クローズハット
E(804) = {10,-10, L 0}

E(900) = { L 0 12}

E(1000)= {L 0 4 8 11}
E(1001)= {L 0 4 9 12}

E(2000)= { L 0  -3  -7}
E(2001)= { L 0  -4  -7}

DPCM {

		 c4, "an_kick.dmc",15,0
       	 d4, "snare_CH.dmc",15,0
				 e4, "rocktom.dmc",15,0
}


//melody
sub(01000) { En1000 e8e4.e2 En1001 b8b4.b2}

//bass
sub(02000) { c+8c+4 c+8  l8c+d+ec+}
sub(02001) { g+8g+4 f+8  l8g+f+ed+}

//Beat Cym
sub(03000) { v15 _5 o5 l8 Ev463En561e4 En* Ev466d8 Ev462g8  Ev461a8 Ev462g8 Ev466d8 Ev462g8  }
sub(03001) {Ev461a8 Ev462g8 Ev466d8 Ev462g8 Ev461a8 Ev462g8 Ev466d8 Ev462g8}



BGM(0){
//Intro

TR1 t160 @1 l8 Ev4 L o5 e1^2 d+2 b1^2 e2   e1^2 d+2  <b2>d+4e4  l8 <bbb >d+ e2
TR2 L o5 Ev5 EC2,3 l8 f+er-e f+g+r-e ber-e f+g+f+e 
					f+er-e f+g+f+e ber-e f+g+f+g+
					f+er-e f+g+r-e ber-e f+g+f+e 
					f+er-e f+g+f+e <<bbb >d+ e2
TR3 L o3 l8 [a>a<]4 [b>b<]4 [e>e<]4 f+>f+< g+>g+< a>a< b>b<
		  [a>a<]4 [b>b<]4 f+>f+< g+>g+< a>a< b>b< eeed+e2
TR4  L v15 _5 o5 l8 Ev463En561e4 En* Ev466d8 Ev462g8  [Ev461a8 Ev462g8 Ev466d8 Ev462g8]15
TR5 L [cccc]8


//A
TR1 @0 o5 Ev3 r-2 l4 c+<b2>  f+ed+ d+4.c+8c+1  l8 bag+a g+4.f+8f+2 l4 ff+g+a g+4.c+4.e4 l4 ed+c+d+
TR2 [r-1]8
TR3 [e>e<]4 [g+>g+<]4 [a>a<]4 [f+>f+<]4 [e>e<]2 [d>d<]2 [c+>c+<]4 [a>a<]4 [b>b<]4
TR4  v15 _5 o5 l8 Ev463En561e4 En* Ev466d8 Ev462g8  [Ev461a8 Ev462g8 Ev466d8 Ev462g8]15
TR5 [cccc]8


//A2
TR1 [r-1]8
TR2 @1 EC* Ev3 o5 r-4. l8 <bb>c+d+ef+4e4 l4 d+ed+4.c+8c+1 l8 bag+a g+4.f+8f+2 l4 ff+g+a g+4e8e4d+4e2 @2 l8 <b8>f+g+f+e
TR3 [e>e<]4 [g+>g+<]4 [a>a<]4 [f+>f+<]4 [e>e<]2 [d>d<]2 [c+>c+<]4 [a>a<]2 [b>b<]2 [e>e<]2 <[b>b<]2>
TR4  v15 _5 o5 l8 Ev463En561e4 En* Ev466d8 Ev462g8  [Ev461a8 Ev462g8 Ev466d8 Ev462g8]15
TR5 [cccc]8

//C

TR1 o5 @2 En2000 v6 e1 f+1 En2001 g+1^1
		  En2000    e1 f+1 En2001 g+1^1 
		  En*
TR2 f+4. l8 <b>f+g+f+ef+4g+4 l8 g+ag+f+ g+4e4 l8g+ag+f+ f+ee  @2 l8 <r-8>f+g+f+e
	f+4. l8 <b>f+g+f+ef+4g+4 l8 ag+ab a2. g+4g+2 r-4 r-8 @0 < b
TR3 <[a>a<]4 [b>b<]4 > [c+>c+<]8
	<[a>a<]4 [b>b<]4 > [e>e<]4 [d+>d+<]4
TR4  v15 _5 o5 l8 Ev463En561e4 En* Ev466d8 Ev462g8  [Ev461a8 Ev462g8 Ev466d8 Ev462g8]15
TR5 [cccc]8

//D

TR1 [r-1]8
TR2 > c+4.e8f+4.g+8 f+4.e8e2 @1 b4.a8 g+4a4 g+4f+4g+4. @2 
	a8g+4 e4 f+4 l8 g+a l4 g+f+e4  l8 ed+ e4 l4 g+ f+a g+f+e r-4
TR3 [ < [a>a<]2 [b>b<]2 > [c+>c+<]4 ]2
	< [a>a<]2 [b>b<]2 [g+>g+<]2 > [c+>c*<]2
	[a>a<]2 [b>b<]2 l4 >e<b>e< r-4
TR4  v15 _5 o5 l8 Ev463En561e4 En* Ev466d8 Ev462g8  [Ev461a8 Ev462g8 Ev466d8 Ev462g8]15
TR5 [cccc]8

}