// ���^��`
#Code		"nsd_all.bin"
#title		"Avalanche"
#Copyright	"nsd.lib, Copyright (c) 2012 S.W. All rights reserved"
#Composer	"Random Beats"
#External   32
#bgm		1
#se			0
#Bank



E(001){	L 8 R (3,3,12) 0 }
E(002){	9 8 7 5 3 2 1 L 0 }
E(003){	7 6 5 R (2,2,12) 0 }
E(004){ 7 7 7 6 6 6 5 5 5 4 R (2,2,12) 0 }
E(005){ 7 7 7 6 R (2,2,12) 0 }
E(006){	8 7 6 5 R (2,2,12) 0 }
E(007){	L 6 R (3,3,12) 0 }


E(013){ 6 7 8 7 7 7 6 6 5 4 4 3 3 2 2 }


E(101){	L 1 2 2 1 1 2 2 }
E(102){	0 1 }
E(103){	0 1 2 }
E(104){	2 1 }



E(201){	(0,0,12) L 2 2 2 2 -2 -2 -2 -2 } 
E(202){	(0,0,24) L 2 2 2 2 -2 -2 -2 -2 } 
E(203){	(0,0,6)  L 2 2 2 2 -2 -2 -2 -2 } 


E(300)={	L 0 -9 -4 }
E(301)={	L 0 -7 -4 }
E(302)={	L 0 -7 -3 }
E(303)={	L 0 -6 -3 }
E(304)={	L 0 -7 -2 }
E(305)={	L 0 -8 -5 }
E(306)={	L 12 0 }



E(461)={	10 07 00 }
E(462)={	10 08 07 06 05 04 03 03 02 02 01 01 00 }
E(463)={	11 10 10 09 09 08 08 08 
			07 07 07 07 
			06 06 06 06 06 06 06 06 06 06
			05 05 05 05 05 05 05 05 05 05
			04 04 04 04 04 04 04 04 04 04
			03 03 03 03 03 03 03 03 03 03 03 03
			02 02 02 02 02 02 02 02 02 02 02 02 02 02
			01 01 01 01 01 01 01 01 01 01 01 01 01 01 01
			00 }
E(561)={	 -2 -2 -2 -2 -1 -1 -1 -1 0 0 0 0 L -2 -2 -2 -1 -1 -1 0 0 0 }
E(464)={	10 02 00}
E(465)= {	07 07 07 07 07 07
			06 06 06 06 06 06 06 06 
			05 05 05 05 05 05 05 05 
			04 04 04 04 04 04 04 04 04 04
			03 03 03 03 03 03 03 03 03 03 03 03
			02 02 02 02 02 02 02 02 02 02 02 02 02 02
			01 01 01 01 01 01 01 01 01 01 01 01 01 01 01
			00 }
E(466)={	11 06 09 05 07 04 05 03 04 02 03 01 02 00 01 00 }



DPCM{
//	���K, "�t�@�C����", ���g��, ���[�h(0:shot / 1:loop)

	c4,		"an_kick.dmc",		15,0
	c+4,	"TimpCC.dmc",		15,0
	d4,		"snare_CH.dmc",	15,0
	d+4,	"TimpD.dmc",		15,0
	f4, 	"TimpF.dmc",	15,0
	g4,		"TimpA.dmc",		15,0
	a4,		"TimpB.dmc",		15,0
 	b4, 	"TimpC.dmc",	15,0

}





BGM(0) {

//intro

TR01 t72 @2  o4 Ev13  	l16 [2 r- fa-r-gb-8a->c8<b->d-8c<a-f]
					l16 r e-grfa-8gb-8a->c8<b-ge-
					l16 _0 [2 r- fa-r-gb-8a->c8<b->d-8c<a-f]
					l16 [2 r fa-rgb-8a->c8<b->d-8c<a-f]
					l16 _0 [2 r fa-rgb-8a->c8<b->d-8c<a-f]
TR2 @1 Ev6 		o3	l1 	c<a-b- o4 l4 r2 ce-f2b-e-f1
						e-2 ce- f1 c1
TR3 o3 			l1 fd-e-ffd-e-f f
TR4 v15 _5 o5
					l4 Ev463En561 er- r-2 er-r-2 er-r-2 er-r-2 er-r-2
							 er-r-2 er-r-2 er-r-2 e r-2 l16 r- Ev2 b-b-b-

TR5 o4 b2 l16 r bbbbbbb d-2 r d-d-d- d-d-d-d- e-2 r e-e-e-e-e-e-e- 
					l4 fbfb8f8  d-2 l16 r fffffff d-2 r d-d-d- d-d-d-d-  e-2 r e-e-e-e-e-e-e- 
					l4 fbfb8f8 d-2. l16 r cdc
TR25 @64 o4 v9  l4 r-2a-fd-1 r2 ge-f1^1r-1r-1r-1r-1
TR26 @64 o4 v11 l4 r-2>c<a-f1 r2 b-ga-1^1r-1r-1r-1r-1 
TR27 @64 o3 v12 l1 fd-e-ffd-e-f f


//A

TR01 @2  o4 Ev13  	l16 [2 r- fa-r-gb-8a->c8<b->d-8c<a-f]
					l16 r e-grfa-8gb-8a->c8<b-ge-
					l16 _0 [2 r- fa-r-gb-8a->c8<b->d-8c<a-f]
					l16 [2 r fa-rgb-8a->c8<b->d-8c<a-f]
					l16 _0 [2 r fa-rgb-8a->c8<b->d-8c<a-f]
TR02 @1 o4 Ev13		l1 c<a-b- o4 l4 r-2 ce-f2b-e-f1 e-2 ce- f1 c1
TR03 	o3			l1 fd-e-ffd-e-f f
TR04				l16 Ev463En561 e8 Ev2 b-b- b-b-b-b- b-b-b-b- b-b-b-b-
					[l16 b-b-b-b- b-b-b-b- b-b-b-b- b-b-b-b-]8
TR05				l8 cr-dc cc16c16dc  [8 c8.c16dc r-cdc]
TR25	o4 v9 l4 	r-2a-fd-1 r2 ge-f1^1 r-1r-1r-1r-1
TR26	o4 v11 l4 	r-2>c<a-f1 r2 b-ga-1^1 r-1r-1r-1r-1
TR27	o3 v12		l1 fd-e-ffd-e-f f


//A'
TR01 @2  o4 Ev13  	l16 [2 fa-r-gb-8a->c8<b->d-8c<a-f8]
					l16 e-grfa-8gb-8a->c8<b-ge-8
					l16 _0 [2 fa-r-gb-8a->c8<b->d-8c<a-f8]
					l16 [2 fa-rgb-8a->c8<b->d-8c<a-f8]
					l16 _0 [2 fa-rgb-8a->c8<b->d-8c<a-f8]
TR02 @1 o4 Ev13		l1 c<a-b- o4 l4 r-2 ce-f2b-e-f1 e-2 ce- f1 c1
TR03 	o3			l1 fd-e-ffd-e-f f
TR04				l16 Ev463En561 e8 Ev2 b-b- b-b-b-b- b-b-b-b- b-b-b-b-
					[l16 b-b-b-b- b-b-b-b- b-b-b-b- b-b-b-b-]8
TR05				l8 cr-dc cc16c16dc  [8 c8.c16dc r-cdc]
TR25	o4 v9 l4 	r-2a-fd-1 r2 ge-f1^1 r-1r-1r-1r-1
TR26	o4 v11 l4 	r-2>c<a-f1 r2 b-ga-1^1 r-1r-1r-1r-1
TR27	o3 v12		l1 fd-e-ffd-e-f f



//B

TR01 @1 Ev13 EC2,6 o3 l32 [2 o3fa->cf a->cfa-> cfc<a- fc<a-c>]
		[4 o3 d-a->d-a->d-<a-d-<a-]
		[2 o3 e-gb->e- gb->e-g b-ge-<b- ge-<b-g>]
		[4 o3 fa->cf a->cfa-> cfc<a- fc<a-c>]
		[4 o3 d-a->d-a->d-<a-d-<a->]
		[2 o3 e-gb->e- gb->e-g b-ge-<b- ge-<b-g>]
		[4 o3 fa->cf a->cfa-> cfc<a- fc<a-c>]
		TR02 @1 o4 Ev13		l1 c<a-b- o4 l4 r-2 ce-f2b-e-f1 e-2 ce- f1 c1
TR03 	o3			l1 fd-e-ffd-e-f f
TR04				l16 Ev463En561 e8 Ev2 b-b- b-b-b-b- b-b-b-b- b-b-b-b-
					[l16 b-b-b-b- b-b-b-b- b-b-b-b- b-b-b-b-]8
TR05				l8 cr-dc cc16c16dc  [8 c8.c16dc r-cdc]
TR25	o4 v9 l4 	r-2a-fd-1 r2 ge-f1^1 r-1r-1r-1r-1
TR26	o4 v11 l4 	r-2>c<a-f1 r2 b-ga-1^1 r-1r-1r-1r-1
TR27	o3 v12		l1 fd-e-ffd-e-f f



//C

TR01 t72 @2  o4 Ev13  	l16 [2 r- fa-r-gb-8a->c8<b->d-8c<a-f]
					l16 r e-grfa-8gb-8a->c8<b-ge-
					l16 _0 [2 r- fa-r-gb-8a->c8<b->d-8c<a-f]
					l16 [2 r fa-rgb-8a->c8<b->d-8c<a-f]
					l16 _0 [2 r fa-rgb-8a->c8<b->d-8c<a-f]
TR2 @1 Ev6 		o3	l1 	c<a-b- o4 l4 r2 ce-f2b-e-f1
						e-2 ce- f1 c1
TR3 o3 			l1 fd-e-ffd-e-f f
TR04				l16 Ev463En561 e8 Ev2 b-b- b-b-b-b- b-b-b-b- b-b-b-b-
					[l16 b-b-b-b- b-b-b-b- b-b-b-b- b-b-b-b-]8
TR05				l8 cr-dc cc16c16dc  [8 c8.c16dc r-cdc]
TR25 @64 o4 v9  l4 r-2a-fd-1 r2 ge-f1^1r-1r-1r-1r-1
TR26 @64 o4 v11 l4 r-2>c<a-f1 r2 b-ga-1^1r-1r-1r-1r-1 
TR27 @64 o3 v12 l1 fd-e-ffd-e-f f


//�o���b�g

TR01	@0 o4 l16 [r-8 ag+ar r-8. r-cde-8  ag+a8 fga8gfe-gdgc r-8.]2
TR02	o4 q7 c4. c8 c2 c4. c8 d4e-4
TR03	o3 q7 f4. f8 f2 f4. f8 b-4>c4<
TR04				l16 Ev463En561 e8 Ev2 b-b- b-b-b-b- b-b-b-b- b-b-b-b-
					l16 b-b-b-b- b-b-b-b- b-b-b-b- b-b-b-b-
TR05				l8 cr-dc cc16c16dc  c8.c16dc r-cdc
TR25				r-1r-1
TR26				o4 q7 a4. a8 a2  a4. a8 f4g4
TR27				o3 q7 f4. f8 f2 f4. f8 b-4>c4<

//�o���b�g2

TR01 @2 o5 l8 r c<b->c <afe-ce-gf4. l16cde-8dc+c2 r2 r-1
TR02 [2 o4 q7 c4. c8 c2 c4. c8 d4e-4]
TR03 o3 [2 q7 f4. f8 f2 f4. f8 b-4>c4<]
TR04				l16 Ev463En561 e8 Ev2 b-b- b-b-b-b- b-b-b-b- b-b-b-b-
					[l16 b-b-b-b- b-b-b-b- b-b-b-b- b-b-b-b-]3
TR05				l8 cr-dc cc16c16dc  [3 c8.c16dc r-cdc]
TR25				r-1r-1
TR26			o4 [2 q7 a4. a8 a2  a4. a8 f4g4]
TR27			o3 [2 q7 f4. f8 f2 f4. f8 b-4>c4<]

//�o���b�g�u���C�N

TR02			o4 q7  [c4. c8 c4c4]2
TR03			o3 q7  [a-4. a-8 a-4a-4]2
TR04				l16 Ev463En561 e8 Ev2 b-b- b-b-b-b- b-b-b-b- b-b-b-b-
					l16 b-b-b-b- b-b-b-b- b-b-b-b- b-b-b-b-
TR05				l8 cr-dc cc16c16dc  c8.c16dc r-cdc
TR25				r-1 r-1 o4 l16  r- de-8de-f8e-fg8fga-2. q6 l8 r- a-b-
TR26				o4 [2 e-4. e-8 e-4e-4]
TR27				o3 [2 a-4^8 a-8 a-4a-4]

//�o���b�g

TR01	@0 o4 l16 [r-8 ag+ar r-8. r-cde-8  ag+a8 fga8gfe-gdgc r-8.]2
TR02	o4 q7 c4. c8 c2 c4. c8 d4e-4
TR03	o3 q7 f4. f8 f2 f4. f8 b-4>c4<
TR04				l16 Ev463En561 e8 Ev2 b-b- b-b-b-b- b-b-b-b- b-b-b-b-
					l16 b-b-b-b- b-b-b-b- b-b-b-b- b-b-b-b-
TR05				l8 cr-dc cc16c16dc  c8.c16dc r-cdc
TR25				r-1r-1
TR26				o4 q7 a4. a8 a2  a4. a8 f4g4
TR27				o3 q7 f4. f8 f2 f4. f8 b-4>c4<

//�o���b�g2

TR01 @2 o5 l8 r c<b->c <afe-ce-gf4. l16cde-8dc+c2 r2 r-1
TR02 [2 o4 q7 c4. c8 c2 c4. c8 d4e-4]
TR03 o3 [2 q7 f4. f8 f2 f4. f8 b-4>c4<]
TR04				l16 Ev463En561 e8 Ev2 b-b- b-b-b-b- b-b-b-b- b-b-b-b-
					[l16 b-b-b-b- b-b-b-b- b-b-b-b- b-b-b-b-]3
TR05				l8 cr-dc cc16c16dc  [3 c8.c16dc r-cdc]
TR25				r-1r-1
TR26			o4 [2 q7 a4. a8 a2  a4. a8 f4g4]
TR27			o3 [2 q7 f4. f8 f2 f4. f8 b-4>c4<]

//�o���b�g�u���C�N

TR02			o4 q7  [c4. c8 c4c4]2
TR03			o3 q7  [a-4. a-8 a-4a-4]2
TR04				l16 Ev463En561 e8 Ev2 b-b- b-b-b-b- b-b-b-b- b-b-b-b-
					l16 b-b-b-b- b-b-b-b- b-b-b-b- b-b-b-b-
TR05				l8 cr-dc cc16c16dc  c8.c16dc r-cdc
TR25				r-1 r-1 o4 l16  r- de-8de-f8e-fg8fga-2. q6 l8 r- a-b-
TR26				o4 [2 e-4. e-8 e-4e-4]
TR27				o3 [2 a-4^8 a-8 a-4a-4]

//A 

TR01 @2  o4 Ev13  	l16 [2 r- fa-r-gb-8a->c8<b->d-8c<a-f]
					l16 r e-grfa-8gb-8a->c8<b-ge-
					l16 _0 [2 r- fa-r-gb-8a->c8<b->d-8c<a-f]
					l16 [2 r fa-rgb-8a->c8<b->d-8c<a-f]
					l16 _0 [2 r fa-rgb-8a->c8<b->d-8c<a-f]
TR02 @1 o4 Ev13		q255 l1 c<a-b- o4 l4 r-2 ce-f2b-e-f1 e-2 ce- f1 c1
TR03 	o3			q255 l1 fd-e-ffd-e-f f
TR04				l16 Ev463En561 e8 Ev2 b-b- b-b-b-b- b-b-b-b- b-b-b-b-
					[l16 b-b-b-b- b-b-b-b- b-b-b-b- b-b-b-b-]4 [4 r1]
TR05				l8 cr-dc cc16c16dc  [4 c8.c16dc r-cdc] [4 r1]
TR25	o4 v9 l4 	q255 r-2a-fd-1 r2 ge-f1^1 r-1r-1r-1r-1
TR26	o4 v11 l4 	q255 r-2>c<a-f1 r2 b-ga-1^1 r-1r-1r-1r-1
TR27	o3 v12		q255 l1 fd-e-ffd-e-f f

TR01 L @2  o4 Ev13  	l16 [2 r- fa-r-gb-8a->c8<b->d-8c<a-f]
					l16 r e-grfa-8gb-8a->c8<b-ge-
					l16 _0 [2 r- fa-r-gb-8a->c8<b->d-8c<a-f]
					l16 [2 r fa-rgb-8a->c8<b->d-8c<a-f]
					l16 _0 [2 r fa-rgb-8a->c8<b->d-8c<a-f]
TR02 L @1 o4 Ev13		l1 c<a-b- o4 l4 r-2 ce-f2b-e-f1 e-2 ce- f1 c1
TR03 L	o3			l1 fd-e-ffd-e-f f
TR04 L				l16 Ev463En561 e8 Ev2 b-b- b-b-b-b- b-b-b-b- b-b-b-b-
					[l16 b-b-b-b- b-b-b-b- b-b-b-b- b-b-b-b-]8
TR05 L				l8 cr-dc cc16c16dc  [8 c8.c16dc r-cdc]
TR25 L	o4 v9 l4 	r-2a-fd-1 r2 ge-f1^1 r-1r-1r-1r-1
TR26 L	o4 v11 l4 	r-2>c<a-f1 r2 b-ga-1^1 r-1r-1r-1r-1
TR27 L	o3 v12		l1 fd-e-ffd-e-f f




}

