#title		"Codependency"
#composer	"rana"
#Copyright	"nsd.lib, Copyright (c) 2012 S.W. All rights reserved."

#offsetPCM	$C000
コード		"nsd_vrc7.bin"
音楽数		1

E(0) = { 13 12 11 8 D1 7 D2 6 L 5 }
E(1) = {12 L 0 }
E(2) = { 12 12 12 12 12 L 0 }

E(3) = {      	06 08 10 11 11 11 10 10 10 10			;StringsA
		09 D8 09 D8 08 D8 08 D8 07 D8 07 D8 L	06 }
E(4)= {		03 05 07 08 D2 07 D4						;StringsB
		06 D8 06 D8 05 D8 05 D8 04 D8 04 D8 L	03}
E(5) = {       	10 07
		13 11 09 07 05 03 02
		04 07 05 04 03 02 02 01
		03 05 04 03 02 02 01 L 01 }
E(7) = {	12 10 9 7 L 5 }
E(8) = {	13 10 9 7 D4 L 1 }
E(9) = {	14 12 10 D4 8 D4 6 D4 5 D1 L 0 }
E(14) = { 02 03 04 05 D4 04 D4 03 D4 02 D4 L 01 }			;Strings C
E(15) = {02 03 04 05 D4 04 D4 03 D4 02 D4 L 01 00 }
E(30) = { (43,15,5) (15,0,50) L 0 R L 0 }
E(40) = { 10 9 8 7 L 0 }									;kirbyR
E(41) = { 12 11 10 9 L 1 }
E(42) = { 15 13 12 11 L 4 }
E(43) = { 14 L 0 }			;kirby part2
E(44) = { 15 L 4 }
E(45) = { 11 D1 9 8 D7 7 D2 L 0}
E(46) = { 15 14 13 12 L 4}
E(47) = { 8 D2 6 5 L 0 }		;kirby part3
E(48) = { 13 12 11 10 L 2}
E(49) = { 2 6 8 5 L 0 }		;kirby melo
E(50) = { 2 6 8 5 3 D8 4 D8 5 D8 6 D8 7 D8 8 D12 L 0}	;kirby longtone
E(51) = { 5 D2 3 2 L 0 }
E(52) = { 3 7 9 L 6 }									;kirby longton2
E(53) = { 7 5 D2 L 0 }
E(461)={	10 07  L 00 }
E(462)={	10 08 07 06 05 04 03 03 02 02 01 01 L 00 }
E(463)={	13 12 10 09 09 08 08 08
			07 07 07 07 06 D8 05 D8 04 D9 03 D10 02 D11 01 D12 L 00 }
E(561)={	 -2 -2 -2 -2 -1 -1 -1 -1 0 0 0 0 L -2 -2 -2 -1 -1 -1 0 0 L 0 }

E(464)= { 10 02 L 00}
E(465)= { 07 D5 06 D6 05 D6 04 D7 03 D9 02 D11 01 D10 L 00 }
E(466)={	11 06 09 05 07 04 05 03 04 02 03 01 02 00 01 L 00 }
E(467)={	08 06 05 04 03 02 D1 L 00 }
E(468)={			  5 2 L 0 }		;kirby drums
E(469)={		    6 3 1 L 0 }
E(470)={		    7 4 2 L 0 }
E(471)={		  8 5 3 1 L 0 }
E(472)={		  9 6 4 2 L 0 }
E(473)={	   10 7 5 3 1 L 0 }
E(474)={	   11 8 6 4 2 L 0 }
E(475)={	    10 9 7 5 3 1 0 D8 1 D8 L 0 }	;kirby drums2
E(476)={	   13 10 8 6 4 2 0 D8 2 D8 L 0 }
E(477)={	 14 11 9 7 5 3 1 0 D8 3 D8 L 0 }
E(478)={	 15 12 10 8 6 4 2 0 D8 4 D8 L 0}
E(479)={	15 12 10 8 6 L 4 }
E(480)={	7 L 0 }		;kirby part2
E(481)={	10 7 5 3 L 0}
E(490)={  15 14 13 11 10 9  8 8 7 7 6 6 5 5 4 4 3 3 3 2 2 2 2 L 1 D5} ;モザイクロール

E(700)={ 0 D10 2 D10 4 D10 5 D10 6 D10 4 D10 L 2 D10 3 D6 1 D6 }	;�g�̉���
E(800)={6,12,11,10,9,8,12,7,5,4,3,2,1, L 0} // コナミスネア+クローズハット
E(801) = {12,6, L 2} // クローズハット単体
E(802) = {12,8,7,5,5,5,12,8,5,5,4,4,4,3,3,3,2,2, L 2} // オープンハット+クローズハット
E(803) = {10,14,13,12,10,10,12,9,7,7,5,5,12,6,3,3,2,2,1,1, L 0} // シンバル+クローズハット
E(804) = {10,-10, L 0}

E(900) = { L 0 12}

DPCM {

		 c4, "808kick.dmc",15,0
       	 d4, "snare_CH.dmc",15,0
}

@OP(1) ={@R $05,$03,$10,$06,$74,$A1,$13,$F4};シンセ

@OP(3) ={@R $01,$41,$11,$00,$A0,$A0,$83,$95} ; guitar

@OP(16)={@R $A5,$21,$15,$0E,$85,$F4,$AA,$2A};Pad

@OP(11)={@R $07,$81,$2B,$05,$A5,$A5,$03,$03};ビブラフォン

@OP(7) ={@R $03,$21,$59,$04,$F1,$F1,$38,$28};E.Piano2(MA2)


BGM(0){
//A

TR1 t84 r-1
TR2 o5 Ev5 r-1

TR3  o6 l16 r-1

TR6 @V11 o6 v13 [r-1]16
		l4 c<g>d<g> e  d8c8 <b > g  d8c8 g4 d8c4 g8 l8 ffed ec<ge>
    o6  l4 c<g>d<g> e d8c8 d g l8 fedfedce d2g2 c1

TR7,8,9,10
    @V1 v9 l1

TR7 o5 [a r2. r-8 a8 g  r1]4
TR8 o5 [f r2. r-8 f8 d  r1]4
TR9 o4 [d r2. r-8 d8<b> r1]4
TR10 o4 v12 l8 [[rara]4 [rgrg]4]8


TR11 v12 o3 l8 [[drer]3 dr-cr-
                [<b>rcr]3 <b>r-<a>r-]8


TR4	o4  [r-2 l16 Ev801 r-8 d16<d16>r-8 dd]8
        Ev463En561e2 En*  Ev466d8 Ev801 d16<d16>r-8 dd
        r-2 l16 Ev466 d8  Ev801 d16<d16>r-8 dd
        [r-2 l16 Ev466 d8  Ev801 d16<d16>r-8 dd]14



TR5 o4  [l8 c4 r-8.c16 c4 r-4]8
        [l8 c4 r-8.c16 d4 r-8c8]16

//B
}