#title		"First Eden for 2 hours DTM in 20230325"
#composer	"rana"
#Copyright	"nsd.lib, Copyright (c) 2012 S.W. All rights reserved."

#offsetPCM	$C000
#code		"nsd_vrc7.bin"
#bgm		1

E(0) = { 13 12 11 8 D1 7 D2 6 L 5 }
E(1) = {12 L 0 }
E(2) = { 12 12 12 12 12 L 0 }

E(3) = {      	06 08 10 11 11 11 10 10 10 10			;StringsA
		09 D8 09 D8 08 D8 08 D8 07 D8 07 D8 L	06 }
E(4)= {		03 05 07 08 D2 07 D4						;StringsB
		06 D8 06 D8 05 D8 05 D8 04 D8 04 D8 L	03}
E(5) = {       	10 07
		13 11 09 07 05 03 02
		04 07 05 04 03 02 02 01
		03 05 04 03 02 02 01 L 01 }
E(7) = {	12 10 9 7 L 5 }
E(8) = {	13 10 9 7 D4 L 1 }
E(9) = {	14 12 10 D4 8 D4 6 D4 5 D1 L 0 }
E(14) = { 02 03 04 05 D4 04 D4 03 D4 02 D4 L 01 }			;Strings C
E(15) = {02 03 04 05 D4 04 D4 03 D4 02 D4 L 01 00 }
E(30) = { (43,15,5) (15,0,50) L 0 R L 0 }
E(40) = { 10 9 8 7 L 0 }									;kirbyR
E(41) = { 12 11 10 9 L 1 }
E(42) = { 15 13 12 11 L 4 }
E(43) = { 14 L 0 }			;kirby part2
E(44) = { 15 L 4 }
E(45) = { 11 D1 9 8 D7 7 D2 L 0}
E(46) = { 15 14 13 12 L 4}
E(47) = { 8 D2 6 5 L 0 }		;kirby part3
E(48) = { 13 12 11 10 L 2}
E(49) = { 2 6 8 5 L 0 }		;kirby melo
E(50) = { 2 6 8 5 3 D8 4 D8 5 D8 6 D8 7 D8 8 D12 L 0}	;kirby longtone
E(51) = { 5 D2 3 2 L 0 }
E(52) = { 3 7 9 L 6 }									;kirby longton2
E(53) = { 7 5 D2 L 0 }
E(461)={	10 07  L 00 }
E(462)={	10 08 07 06 05 04 03 03 02 02 01 01 L 00 }
E(463)={	13 12 10 09 09 08 08 08
			07 07 07 07 06 D8 05 D8 04 D9 03 D10 02 D11 01 D12 L 00 }
E(561)={	 -2 -2 -2 -2 -1 -1 -1 -1 0 0 0 0 L -2 -2 -2 -1 -1 -1 0 0 L 0 }

E(464)= { 10 02 L 00}
E(465)= { 07 D5 06 D6 05 D6 04 D7 03 D9 02 D11 01 D10 L 00 }
E(466)={	11 06 09 05 07 04 05 03 04 02 03 01 02 00 01 L 00 }
E(467)={	08 06 05 04 03 02 D1 L 00 }
E(468)={			  5 2 L 0 }		;kirby drums
E(469)={		    6 3 1 L 0 }
E(470)={		    7 4 2 L 0 }
E(471)={		  8 5 3 1 L 0 }
E(472)={		  9 6 4 2 L 0 }
E(473)={	   10 7 5 3 1 L 0 }
E(474)={	   11 8 6 4 2 L 0 }
E(475)={	    10 9 7 5 3 1 0 D8 1 D8 L 0 }	;kirby drums2
E(476)={	   13 10 8 6 4 2 0 D8 2 D8 L 0 }
E(477)={	 14 11 9 7 5 3 1 0 D8 3 D8 L 0 }
E(478)={	 15 12 10 8 6 4 2 0 D8 4 D8 L 0}
E(479)={	15 12 10 8 6 L 4 }
E(480)={	7 L 0 }		;kirby part2
E(481)={	10 7 5 3 L 0}
E(490)={  15 14 13 11 10 9  8 8 7 7 6 6 5 5 4 4 3 3 3 2 2 2 2 L 1 D5} ;モザイクロール

E(700)={ 0 D10 2 D10 4 D10 5 D10 6 D10 4 D10 L 2 D10 3 D6 1 D6 }	;�g�̉���
E(800)={6,12,11,10,9,8,12,7,5,4,3,2,1, L 0} // コナミスネア+クローズハット
E(801) = {12,6, L 2} // クローズハット単体
E(802) = {12,8,7,5,5,5,12,8,5,5,4,4,4,3,3,3,2,2, L 2} // オープンハット+クローズハット
E(803) = {10,14,13,12,10,10,12,9,7,7,5,5,12,6,3,3,2,2,1,1, L 0} // シンバル+クローズハット
E(804) = {10,-10, L 0}

E(900) = { L 0 12}

DPCM {

		 c4, "808kick.dmc",15,0
       	 d4, "snare_CH.dmc",15,0
		
}


VRC7(1){	//Piano
	//	TL FB
	@	18  4
	//	AR DR SL RR KL MT AM VB EG KR DT
		15  1  3  3  2  1  0  0  0  1  1
		15  2  3  1  0  1  0  0  0  1  0
}
VRC7(2) ={@R $05,$01,$16,$00,$F9,$A2,$15,$F5};ギター(エレキ系)
VRC7(3) ={@R $01,$41,$11,$00,$A0,$A0,$83,$95};ピアノ(アコースティック系)
VRC7(4) ={@R $01,$41,$17,$00,$60,$F0,$83,$95};フルート
VRC7(5) ={@R $24,$41,$1F,$00,$50,$B0,$94,$94};クラリネット
VRC7(6) ={@R $05,$01,$0B,$04,$65,$A0,$54,$95};ベル系
VRC7(7) ={@R $11,$41,$0E,$04,$70,$C7,$13,$10};トランペット
VRC7(8) ={@R $02,$44,$16,$06,$E0,$E0,$31,$35};バイオリン
VRC7(9) ={@R $48,$22,$22,$07,$50,$A1,$A5,$F4};ホルン
VRC7(10)={@R $05,$A1,$18,$00,$A2,$A2,$F5,$F5};オルゴール
VRC7(11)={@R $07,$81,$2B,$05,$A5,$A5,$03,$03};ビブラフォン
VRC7(12)={@R $01,$41,$08,$08,$A0,$A0,$83,$95};鋸波
VRC7(13)={@R $21,$61,$12,$00,$93,$92,$74,$75};アコースティックベース
VRC7(14)={@R $21,$62,$21,$00,$84,$85,$34,$15};シンセベース１
VRC7(15)={@R $21,$62,$0E,$00,$A1,$A0,$34,$15};シンセベース２




bgm(0){

//Defenition
TR6 l4	o5	v12	Rm2	@0	@V8	t150 
                                    
TR7	l4	o6	v8	Rm2	@0	@V3	         
TR8	l4	o5	v12	Rm2	@0	@V3	         
TR9	l4	o5	v12	Rm2	@0	@V3	         
TR10l4	o5	v12	Rm2	@0	@V3	        
TR11l4	o2	v10	Rm2	@0	@V13	    

/*To My Eden at 
rana_mzk@Misskey.io
rana@Misskey.design 
rana_mzk on verious SNS.
*/

//A
TR6 L l4	o5	v12	Rm2	@0	             l8  g4.f4.e8d2 c4.d4 
                                     e4.d4.c8d2 c4.d4 
TR7	L l4	o6	v8	Rm2	@0	             l8  [4 r-1]
TR8	L l4	o5	v12	Rm2	@0	 	         l8  [4 r-4 e r-4 e r-8]
TR9	L l4	o5	v12	Rm2	@0		         l8  [4 r-4 c r-4 c r-8] 
TR10L l4	o5	v12	Rm2	@0		         l8  [4 r-4 a r-4 a r-8] 
TR11L l4	o2	v10	Rm2	@0	    	     l8	  a4.>c4.e8<e2d4c4> d2c4g4 f2e2


TR6	l4	o5	v12	Rm2	@0	             l8  g4.f4.e8d2 c4.d4 
                                         e4.d4.c8d2 c4.d4 
TR7	l4	o6	v10	Rm2	@0	             l8  e4.d4.c8<b2 a4.b4>
                                         c4.<b4.a8b2 a4.b32
TR8	l4	o5	v12	Rm2	@0	 	         l8  [5 r-4 e r-4 e r-8] 
TR9	l4	o5	v12	Rm2	@0		         l8  [5 r-4 c r-4 c r-8] 
TR10l4	o5	v12	Rm2	@0		         l8  [5 r-4 a r-4 a r-8] 
TR11l4	o2	v10	Rm2	@0	     	     l8	  a4.>c4.e8 <e2d4c4> d2c4g4 f2e2

TR4 L Ev463En561e4 En* Ev466d8 Ev462g8 [Ev461a16a16 Ev462g8 Ev466d8 Ev462g8]15
TR5 L o4 [8 cccc]

//B Bass Solo
TR6	l4	o5	v12	Rm2	@0		         l1  [3 r-1] r-2. <a4>
TR7	l4	o2	v12	Rm2	@0		         l8 D-1  a8  a8 r-8 a4g4 a4 r-8 a2 a4g4
                                             a8 a8a8 a4g4 a8 r-4 a4g4 r-4
TR8	l4	o5	v12	Rm2	@0		         l8  [4 r-1]
TR9	l4	o5	v12	Rm2	@0		         l8  [4 r-1]
TR10l4	o1	v12	Rm2	@0		         l8  [4 r-1]
TR11l4	o2	v10	Rm2	@0	    	     l8	 a8  a8 r-8 a4g4 a8 r-4 a2 a4g4
                                             a8 a8a8 a4g4 a8 r-4 a4g4 r-4


TR6	l4	o5	v12	Rm2	@0	             l8  [3 r-1] r-2. l16 cdef
TR7	l4	o2	v12	Rm2	@0	             l8  a8  a8 r-8 a4g4 a4 r-8 a4 a4g4
                                             a8 a8a8 a4g4 a8 r-4 a4g4 r-8 w8
TR8	l4	o5	v12	Rm2	@0	 	         l8 [4  r-1]
TR9	l4	o5	v12	Rm2	@0		         l8 [4  r-1]
TR10l4	o5	v12	Rm2	@0		         l8 [4 r-1 ]
TR11l4	o2	v10	Rm2	@0	     	     l8	 a8  a8 r-8 a4g4 a8 r-4 a4 a4g4
                                             a8 a8a8 a4g4 a8 r-4 a4g4 r-4 

TR4 Ev463En561e4 En* Ev466d8 Ev462g8 [Ev461a16a16 Ev462g8 Ev466d8 Ev462g8]14
                                      Ev461a16a16 Ev462g8 Ev466d8. d16

TR5 o4 [8 cccc]


//Return to A
TR6	l4	o5	v12	Rm2	@0	             l8  g4.f4.e8d2 c4.d4 
                                     e4.d4.c8d2 c4.d4 
TR7	l4	o6	v10	Rm2	@0	 	         l8  [3 r-1] r-2 r32 r16 r8 l16 <ab>cd
TR8	l4	o5	v12	Rm2	@0	 	         l8  [4 r-4 e r-4 e r-8]
TR9	l4	o5	v12	Rm2	@0		         l8  [4 r-4 c r-4 c r-8] 
TR10l4	o5	v12	Rm2	@0		         l8  [4 r-4 a r-4 a r-8] 
TR11l4	o2	v10	Rm2	@0	    	     l8	  a4.>c4.e8<e2d4c4> d2c4g4 f2e2


TR6	l4	o5	v12	Rm2	@0	             l8  g4.f4.e8d2 c4.d4 
                                         e4.d4.c8d2 c4.d4 
TR7	l4	o6	v10	Rm2	@0	             l8  e4.d4.c8<b2 a4.b4>
                                         c4.<b4.a8b2 a4.b32
TR8	l4	o5	v12	Rm2	@0	 	         l8  [5 r-4 e r-4 e r-8] 
TR9	l4	o5	v12	Rm2	@0		         l8  [5 r-4 c r-4 c r-8] 
TR10l4	o5	v12	Rm2	@0		         l8  [5 r-4 a r-4 a r-8] 
TR11l4	o2	v10	Rm2	@0	     	     l8	  a4.>c4.e8 <e2d4c4> d2c4g4 f2e2

TR4 Ev463En561e4 En* Ev466d8 Ev462g8 [Ev461a16a16 Ev462g8 Ev466d8 Ev462g8]15
TR5 o4 [8 cccc]

//B' again with riff
TR6	l4	o5	v12	Rm2	@0		         l1  [4 r-1] 
TR8	l4	o5	v10 Rm2	@0		         l8  [3 gfrgfrgfr]       gfr gf
TR9	l4	o5	v10	Rm2	@0		         l8  [3 edredredr]       edr ed
TR10l4	o5	v10	Rm2	@0		         l8  [3 c<b>rc<b>rc<b>r] c<b>rc<b>
TR7	l4	o2	v12	Rm2	@0		         l8      a8  a8 r-8 a4g4 a4 r-8 a2 a4g4
                                             a8 a8a8 a4g4 a8 r-4 a4g4 r-4
TR11l4	o2	v10	Rm2	@0	    	     l8	 a8  a8 r-8 a4g4 a8 r-4 a2 a4g4
                                             a8 a8a8 a4g4 a8 r-4 a4g4 r-4

TR4 Ev463En561e4 En* Ev466d8 Ev462g8 [Ev461a16a16 Ev462g8 Ev466d8 Ev462g8]15
TR5 o4 [8 cccc]

TR6	l4	o5	v10	Rm2	@0		         l8  [3 agragragr] agrag
TR8	l4	o5	v10 Rm2	@0		         l8  [3 gfrgfrgfr] gfr gf
TR9	l4	o5	v10	Rm2	@0		         l8  [3 edredredr] edr ed
TR10l4	o5	v10	Rm2	@0		         l8  [3 c<b>rc<b>rc<b>r] c<b>rc<b>
TR7	l4	o2	v12	Rm2	@0		         l8      a8  a8 r-8 a4g4 a4 r-8 a2 a4g4
                                             a8 a8a8 a4g4 a8 r-4 a4g4 r-4
TR11l4	o2	v10	Rm2	@0	    	     l8	 a8  a8 r-8 a4g4 a8 r-4 a2 a4g4
                                             a8 a8a8 a4g4 a8 r-4 a4g4 r-4

TR4 Ev463En561e4 En* Ev466d8 Ev462g8 [Ev461a16a16 Ev462g8 Ev466d8 Ev462g8]15
TR5 o4 [8 cccc]



//C
TR6	l4	o5	v12	Rm2	@0	             l8  g4.a4.b8>c2 <b4.g4 
                                         e4.d4.c8d2 c4.d4 
TR7	l4	o6	v10	Rm2	@0	             l8  [3 r-1] r-2 r32 r16 r8 
TR8	l4	o5	v8	Rm2	@0	 	         l8  [2 r- aaaa aaaa] [2 r- bbb bbbb] [2 r- ggg gggg] [2 r->ccc cccc<]  
TR9	l4	o5	v8	Rm2	@0		         l8  [2 r- ffff ffff] [2 r- ggg gggg] [2 r- eee eeee] [2 r- aaa aaaa]
TR10l4	o5	v8	Rm2	@0		         l8  [2 r- dddd dddd] [2 r- eee eeee] [2 r- ccc cccc] [2 r- fff ffff]
TR11l4	o2	v10	Rm2	@0	     	     l8	 [2 dddd] [2eeee] [2cccc] [2ffff]

TR6	l4	o5	v12	Rm2	@0	             l8  g4.a4.b8>c2 <b4.g4 
                                         e4.d4.c8d2 c4.d4 
TR7	l4	o5	v10	Rm2	@0	             l8  e4.g4.g8a2  g4.e4 
                                         c4.<b4.a8b2 a4.b4.>
TR11l4	o2	v10	Rm2	@0	     	     l8	 [2 dddd] [2 eeee] [2 cccc]  ffff ff

TR4 Ev463En561e4 En* Ev466d8 Ev462g8 [Ev461a16a16 Ev462g8 Ev466d8 Ev462g8]7
TR5 o4 [4 cccc]



//B Bass Solo refrain
TR6	l4	o5	v12	Rm2	@0		         l1  [3 r-1] r-2. r-2 <a4>
TR7	l4	o2	v12	Rm2	@0		         l8      a8  a8 r-8 a4g4 a4 r-8 a2 a4g4
                                             a8 a8a8 a4g4 a8 r-4 a4g4 r-4
TR8	l4	o5	v12	Rm2	@0		         l8  [4 r-1]
TR9	l4	o5	v12	Rm2	@0		         l8  [4 r-1]
TR10l4	o1	v12	Rm2	@0		         l8  [4 r-1]
TR11l4	o2	v10	Rm2	@0	    	     l8	 a8  a8 r-8 a4g4 a8 r-4 a2 a4g4
                                             a8 a8a8 a4g4 a8 r-4 a4g4 r-4


TR6	l4	o5	v12	Rm2	@0	             l8  [3 r-1] r-2. l16 cdef 
TR7	l4	o2	v12	Rm2	@0	             l8  a8  a8 r-8 a4g4 a4 r-8 a4 a4g4
                                             a8 a8a8 a4g4 a8 r-4 a4g4 f4  w 
TR8	l4	o5	v12	Rm2	@0	 	         l8 [4  r-1] w8 w4 w 
TR9	l4	o5	v12	Rm2	@0		         l8 [4  r-1] w8 w4 w 
TR10l4	o5	v12	Rm2	@0		         l8 [4  r-1] w8 w4 w 
TR11l4	o2	v10	Rm2	@0	     	     l8	 a8  a8 r-8 a4g4 a8 r-4 a4 a4g4
                                             a8 a8a8 a4g4 a8 r-4 a4g4 f4  w8 w 

TR4 Ev463En561e4 En* Ev466d8 Ev462g8 [Ev461a16a16 Ev462g8 Ev466d8 Ev462g8]7
                                      Ev461a16a16 Ev462g8 Ev466d8. d16 

TR5 o4 [4 cccc] cc 


}


